<svg width="91" height="64" viewBox="0 0 91 64" fill="none" xmlns="http://www.w3.org/2000/svg">
<g id="01-symbol_primary-blue-docker-logo 1" clip-path="url(#clip0_152_2038)">
<path id="Vector" d="M78.6229 23.1353C78.1465 19.6764 76.241 16.6731 72.8028 13.9599L70.8144 12.6136L69.4889 14.6227C67.7905 17.2116 66.9413 20.8155 67.2106 24.2744C67.3348 25.4757 67.7284 27.6712 68.9504 29.556C67.7284 30.2395 65.3051 31.1508 62.074 31.0887H0.352296L0.228024 31.8136C-0.351911 35.2725 -0.351911 46.1049 6.5866 54.4104C11.8682 60.7275 19.7594 63.9379 30.074 63.9379C52.4429 63.9379 68.9711 53.5197 76.7381 34.5476C79.7827 34.6097 86.3484 34.5683 89.7245 28.044C89.8073 27.899 90.0144 27.5055 90.5944 26.2628L90.9258 25.5793L89.041 24.2951C86.9698 22.9489 82.2682 22.4311 78.6229 23.1353ZM49.7089 0H40.3264V8.63689H49.7089V0ZM49.7089 10.3767H40.3264V19.0136H49.7089V10.3767ZM38.6073 10.3767H29.2248V19.0136H38.6073V10.3767ZM27.5264 10.3767H18.1439V19.0136H27.5264V10.3767ZM16.4248 20.7534H7.04226V29.3903H16.4248V20.7534ZM27.5264 20.7534H18.1439V29.3903H27.5264V20.7534ZM38.6073 20.7534H29.2248V29.3903H38.6073V20.7534ZM49.7089 20.7534H40.3264V29.3903H49.7089V20.7534ZM60.8106 20.7534H51.428V29.3903H60.8106V20.7534Z" fill="#1D63ED"/>
</g>
<defs>
<clipPath id="clip0_152_2038">
<rect width="90.9256" height="64" fill="white"/>
</clipPath>
</defs>
</svg>
