<svg width="65" height="65" viewBox="0 0 65 65" fill="none" xmlns="http://www.w3.org/2000/svg">
<g id="Traced Image">
<g id="Vector">
<path fill-rule="evenodd" clip-rule="evenodd" d="M30.8028 13.457C31.2439 12.4446 31.7272 11.5163 31.8768 11.394C32.2059 11.1254 32.7335 11.1071 33.0835 11.3523C33.2302 11.455 33.8563 12.6977 34.5382 14.2405C38.7244 23.7082 43.1201 31.2799 46.7067 35.2003C47.3688 35.9239 47.6084 36.2789 47.6067 36.5333C47.605 36.7663 46.7801 38.1487 45.0889 40.752L42.5737 44.624L43.3889 44.6875C43.8124 44.7205 44.0981 44.7264 44.2908 44.8633C44.7117 45.1622 44.6892 46.0854 44.6892 49.2776V53.2049L44.3775 53.5165C44.0902 53.8039 43.9715 53.8281 42.8541 53.8281H41.6423V59.1024V64.3768L41.3306 64.6883L41.0191 65H32.5017H23.9842L23.6727 64.6883L23.361 64.3768V59.1024V53.8281H22.1493C21.0318 53.8281 20.9131 53.8039 20.6258 53.5165L20.3142 53.2049V49.2776C20.3142 46.0854 20.2916 45.1622 20.7125 44.8633C20.9052 44.7264 21.191 44.7205 21.6144 44.6875L22.4296 44.624L19.9144 40.752C18.2232 38.1487 17.3983 36.7663 17.3967 36.5333C17.3949 36.2788 17.6344 35.9244 18.2979 35.2003C20.9888 32.263 23.8873 27.6845 27.1602 21.2012C28.8229 17.9076 29.3763 16.7312 30.8028 13.457ZM20.4669 35.9023C23.5936 32.2123 26.7678 26.9535 30.28 19.645C30.9084 18.3374 31.4369 17.267 31.4543 17.2665C31.4717 17.266 31.486 20.4857 31.486 24.4212V31.5768L30.8844 31.8066C30.0224 32.1358 29.0567 33.1457 28.7002 34.0909C28.3319 35.0671 28.3775 36.4679 28.8045 37.2982C29.2118 38.0901 29.9178 38.8188 30.6528 39.206C31.2182 39.5039 31.441 39.5448 32.5017 39.5453C33.5993 39.5459 33.7683 39.5124 34.3811 39.1729C35.7232 38.4293 36.4481 37.2941 36.5342 35.8008C36.5785 35.0298 36.5346 34.7044 36.3031 34.0909C35.9467 33.1457 34.9809 32.1358 34.1189 31.8066L33.5173 31.5768V24.3982V17.2197L35.6698 21.5273C39.048 28.2882 41.6257 32.4671 44.5364 35.9023L45.2141 36.702L42.6348 40.6923L40.0554 44.6826H32.5017H24.948L22.3685 40.6923L19.7892 36.702L20.4669 35.9023ZM30.4704 35.5399C30.4704 34.9426 31.0068 34.1259 31.6079 33.808C31.912 33.6472 32.311 33.5156 32.4947 33.5156C33.033 33.5156 33.9309 34.0435 34.2052 34.5214C34.734 35.4418 34.4117 36.7298 33.5227 37.2489C32.96 37.5776 32.0468 37.5783 31.4761 37.2505C30.9983 36.9761 30.4704 36.0782 30.4704 35.5399ZM22.3454 51.7969V49.2578V46.7188H32.5017H42.6579V49.2578V51.7969H32.5017H22.3454ZM25.3923 62.9688V58.3984V53.8281H32.5017H39.611V58.3984V62.9688H32.5017H25.3923Z" fill="#171717"/>
<path fill-rule="evenodd" clip-rule="evenodd" d="M3.93645 0.118574C2.92806 0.425293 1.92081 1.26407 1.42062 2.21368C1.12266 2.77938 1.08203 3.00117 1.08203 4.0625C1.08203 5.12383 1.12266 5.34562 1.42062 5.91132C1.80782 6.64638 2.53653 7.35236 3.32847 7.75963C4.15874 8.1867 5.55954 8.23228 6.53581 7.86399C7.48098 7.5075 8.49089 6.54177 8.82008 5.67976L9.04986 5.07812H14.8917H20.7337L19.6036 5.78665C18.0242 6.77676 17.2566 7.38613 15.9994 8.64805C14.1974 10.4569 12.6151 12.9346 11.7326 15.3296L11.3934 16.25H10.0717C8.8376 16.25 8.72918 16.2707 8.43833 16.5617L8.12666 16.8732V20.3125V23.7518L8.43833 24.0633L8.74987 24.375H12.1892H15.6284L15.94 24.0633L16.2517 23.7518V20.3125V16.8732L15.94 16.5617C15.6635 16.285 15.5191 16.25 14.6567 16.25H13.685L13.7714 15.9062C13.8189 15.7171 14.1111 15.0569 14.4209 14.439C16.3909 10.5099 19.7534 7.51664 23.7815 6.10619C25.0524 5.66122 27.1469 5.20508 27.9195 5.20508H28.4392V6.35337C28.4392 7.4034 28.4658 7.52845 28.7508 7.81333L29.0624 8.125H32.5017H35.9409L36.2525 7.81333C36.5375 7.52845 36.5642 7.4034 36.5642 6.35337V5.20508H37.0838C37.8564 5.20508 39.9509 5.66122 41.2218 6.10619C45.2499 7.51664 48.6124 10.5099 50.5825 14.439C50.8922 15.0569 51.1845 15.7171 51.2319 15.9062L51.3183 16.25H50.3466C49.4842 16.25 49.3398 16.285 49.0633 16.5617L48.7517 16.8732V20.3125V23.7518L49.0633 24.0633L49.3749 24.375H52.8142H56.2534L56.565 24.0633L56.8767 23.7518V20.3125V16.8732L56.565 16.5617C56.2741 16.2707 56.1657 16.25 54.9316 16.25H53.6099L53.3238 15.4565C52.9015 14.2857 51.9944 12.5158 51.2253 11.3623C49.676 9.03856 47.9268 7.36379 45.3997 5.78449L44.2696 5.07812H50.1116H55.9535L56.1818 5.6762C56.4675 6.42408 57.4459 7.41914 58.2433 7.77271C60.3615 8.71178 62.9168 7.66099 63.725 5.51853C64.3084 3.97224 63.8875 2.15211 62.6983 1.07783C61.9171 0.371973 61.2419 0.0914062 60.1774 0.0299609C59.4065 -0.0143457 59.0811 0.0295801 58.4675 0.261016C57.5223 0.6175 56.5124 1.58323 56.1832 2.44524L55.9535 3.04688H46.2588H36.5642V1.83511C36.5642 0.717666 36.5399 0.598965 36.2525 0.31167L35.9409 0H32.5017H29.0624L28.7508 0.31167C28.4634 0.598965 28.4392 0.717666 28.4392 1.83511V3.04688H18.7445H9.04986L8.82008 2.44524C8.49457 1.59301 7.47971 0.616484 6.56272 0.273457C5.81599 -0.00596678 4.58467 -0.078584 3.93645 0.118574ZM3.18095 4.59037C2.90724 3.57411 3.41695 2.56699 4.38154 2.21787C5.18351 1.92766 6.22706 2.20492 6.66213 2.82395C7.23824 3.64368 7.15496 4.76074 6.46649 5.44921C5.39603 6.51968 3.57196 6.04284 3.18095 4.59037ZM30.4704 6.09375V4.0625V2.03125H32.5017H34.5329V4.0625V6.09375H32.5017H30.4704ZM59.3957 5.96134C57.5661 5.46876 57.4474 2.8614 59.2253 2.21787C60.0273 1.92766 61.0708 2.20492 61.5059 2.82395C62.5987 4.37874 61.2063 6.44897 59.3957 5.96134ZM10.1579 22.3438V20.3125V18.2812H12.1892H14.2204V20.3125V22.3438H12.1892H10.1579ZM50.7829 22.3438V20.3125V18.2812H52.8142H54.8454V20.3125V22.3438H52.8142H50.7829Z" fill="#0957DE"/>
</g>
</g>
</svg>
