<svg width="47" height="46" viewBox="0 0 47 46" fill="none" xmlns="http://www.w3.org/2000/svg">
<rect width="47" height="46" fill="#1E1E1E"/>
<g id="New website">
<path d="M-5443 -4277C-5443 -4278.1 -5442.1 -4279 -5441 -4279H16923C16924.1 -4279 16925 -4278.1 16925 -4277V9096C16925 9097.1 16924.1 9098 16923 9098H-5441C-5442.1 9098 -5443 9097.1 -5443 9096V-4277Z" fill="#444444"/>
<path d="M-5441 -4278H16923V-4280H-5441V-4278ZM16924 -4277V9096H16926V-4277H16924ZM16923 9097H-5441V9099H16923V9097ZM-5442 9096V-4277H-5444V9096H-5442ZM-5441 9097C-5441.55 9097 -5442 9096.55 -5442 9096H-5444C-5444 9097.66 -5442.66 9099 -5441 9099V9097ZM16924 9096C16924 9096.55 16923.6 9097 16923 9097V9099C16924.7 9099 16926 9097.66 16926 9096H16924ZM16923 -4278C16923.6 -4278 16924 -4277.55 16924 -4277H16926C16926 -4278.66 16924.7 -4280 16923 -4280V-4278ZM-5441 -4280C-5442.66 -4280 -5444 -4278.66 -5444 -4277H-5442C-5442 -4277.55 -5441.55 -4278 -5441 -4278V-4280Z" fill="white" fill-opacity="0.1"/>
<g id="Services">
<rect width="1920" height="6603" transform="translate(-380 -3142)" fill="white"/>
<g id="Group 1000005146">
<g id="Group 1000004995">
<g id="Frame 148">
<g id="Group 49">
<rect id="Rectangle 67" x="-16" y="-16" width="78" height="78" rx="8" fill="#F6FAFB"/>
<g id="bigcommerce-1 1" clip-path="url(#clip0_0_1)">
<g id="Group">
<path id="Vector" d="M24.2519 26.187H30.0583C31.7096 26.187 32.7544 25.2791 32.7544 23.8201C32.7544 22.4443 31.7096 21.4531 30.0583 21.4531H24.2519C24.0596 21.4531 23.895 21.6177 23.895 21.7841V25.856C23.9209 26.0483 24.0577 26.187 24.2519 26.187ZM24.2519 35.5697H30.2506C32.0942 35.5697 33.1945 34.634 33.1945 32.9827C33.1945 31.5515 32.1497 30.3957 30.2506 30.3957H24.2519C24.0596 30.3957 23.895 30.5603 23.895 30.7267V35.2128C23.9209 35.4329 24.0577 35.5697 24.2519 35.5697Z" fill="#34313F"/>
<path id="Vector_2" d="M45.4952 0.101153L28.3238 17.2171H31.1308C35.5059 17.2171 38.0929 19.9687 38.0929 22.968C38.0929 25.3349 36.4971 27.0676 34.7903 27.8387C34.5148 27.9497 34.5148 28.3343 34.8181 28.4434C36.7985 29.2145 38.202 31.2782 38.202 33.6988C38.202 37.1105 35.9183 39.8343 31.4877 39.8343H19.3257C19.1334 39.8343 18.9688 39.6697 18.9688 39.5033V26.5425L0.118347 45.3116C-0.129442 45.5593 0.0351342 45.9994 0.393874 45.9994H45.7152C45.8798 45.9994 46.0185 45.8626 46.0185 45.6962V0.348942C46.0999 0.0456776 45.7152 -0.118899 45.4952 0.101153Z" fill="#34313F"/>
</g>
</g>
</g>
</g>
</g>
</g>
</g>
</g>
<defs>
<clipPath id="clip0_0_1">
<rect width="46.0296" height="46" fill="white"/>
</clipPath>
</defs>
</svg>
