<svg width="51" height="40" viewBox="0 0 51 40" fill="none" xmlns="http://www.w3.org/2000/svg">
<g id="Bootstrap_logo 1" clip-path="url(#clip0_359_1914)">
<path id="Vector" d="M5.53735 5.22745C5.44265 2.50784 7.56157 0 10.4257 0H39.774C42.6381 0 44.7571 2.50784 44.6624 5.22745C44.5714 7.8399 44.6895 11.224 45.5412 13.9833C46.3956 16.7512 47.8364 18.5007 50.1961 18.7255V21.2745C47.8364 21.4993 46.3956 23.2488 45.5412 26.0167C44.6895 28.776 44.5714 32.1601 44.6624 34.7726C44.7571 37.4922 42.6381 40 39.774 40H10.4257C7.56157 40 5.44265 37.4922 5.53745 34.7726C5.62833 32.1601 5.5102 28.776 4.65843 26.0167C3.80412 23.2488 2.3598 21.4993 0 21.2745V18.7255C2.35971 18.5007 3.80412 16.7512 4.65843 13.9833C5.5102 11.224 5.62833 7.8399 5.53735 5.22745Z" fill="url(#paint0_linear_359_1914)"/>
<g id="Vector_2" filter="url(#filter0_d_359_1914)">
<path d="M26.1866 30.6339C30.8235 30.6339 33.6177 28.3635 33.6177 24.6187C33.6177 21.788 31.624 19.7387 28.6636 19.4143V19.2963C30.8386 18.9425 32.5454 16.9227 32.5454 14.667C32.5454 11.453 30.0079 9.35938 26.1413 9.35938H17.4413V30.6339H26.1866ZM20.8246 12.0574H25.3257C27.7725 12.0574 29.1621 13.1484 29.1621 15.124C29.1621 17.2323 27.546 18.4117 24.6158 18.4117H20.8246V12.0574ZM20.8246 27.9359V20.9329H25.2954C28.4974 20.9329 30.1589 22.1123 30.1589 24.4123C30.1589 26.7122 28.5428 27.9359 25.4918 27.9359H20.8246Z" fill="url(#paint1_linear_359_1914)"/>
<path d="M26.1866 30.6339C30.8235 30.6339 33.6177 28.3635 33.6177 24.6187C33.6177 21.788 31.624 19.7387 28.6636 19.4143V19.2963C30.8386 18.9425 32.5454 16.9227 32.5454 14.667C32.5454 11.453 30.0079 9.35938 26.1413 9.35938H17.4413V30.6339H26.1866ZM20.8246 12.0574H25.3257C27.7725 12.0574 29.1621 13.1484 29.1621 15.124C29.1621 17.2323 27.546 18.4117 24.6158 18.4117H20.8246V12.0574ZM20.8246 27.9359V20.9329H25.2954C28.4974 20.9329 30.1589 22.1123 30.1589 24.4123C30.1589 26.7122 28.5428 27.9359 25.4918 27.9359H20.8246Z" stroke="white"/>
</g>
</g>
<defs>
<filter id="filter0_d_359_1914" x="0.941269" y="-3.14062" width="49.1765" height="54.2754" filterUnits="userSpaceOnUse" color-interpolation-filters="sRGB">
<feFlood flood-opacity="0" result="BackgroundImageFix"/>
<feColorMatrix in="SourceAlpha" type="matrix" values="0 0 0 0 0 0 0 0 0 0 0 0 0 0 0 0 0 0 127 0" result="hardAlpha"/>
<feOffset dy="4"/>
<feGaussianBlur stdDeviation="8"/>
<feColorMatrix type="matrix" values="0 0 0 0 0 0 0 0 0 0 0 0 0 0 0 0 0 0 0.15 0"/>
<feBlend mode="normal" in2="BackgroundImageFix" result="effect1_dropShadow_359_1914"/>
<feBlend mode="normal" in="SourceGraphic" in2="effect1_dropShadow_359_1914" result="shape"/>
</filter>
<linearGradient id="paint0_linear_359_1914" x1="7.45873" y1="1.05863" x2="51.3216" y2="35.877" gradientUnits="userSpaceOnUse">
<stop stop-color="#9013FE"/>
<stop offset="1" stop-color="#6610F2"/>
</linearGradient>
<linearGradient id="paint1_linear_359_1914" x1="18.9714" y1="10.7597" x2="28.7759" y2="27.3412" gradientUnits="userSpaceOnUse">
<stop stop-color="white"/>
<stop offset="1" stop-color="#F1E5FC"/>
</linearGradient>
<clipPath id="clip0_359_1914">
<rect width="50.1961" height="40" fill="white"/>
</clipPath>
</defs>
</svg>
