<svg width="681" height="681" viewBox="0 0 681 681" fill="none" xmlns="http://www.w3.org/2000/svg">
<mask id="path-1-inside-1_197_114" fill="white">
<path d="M681 340.5C681 528.553 528.553 681 340.5 681C152.447 681 0 528.553 0 340.5C0 152.447 152.447 0 340.5 0C528.553 0 681 152.447 681 340.5ZM67.3633 340.5C67.3633 491.349 189.651 613.637 340.5 613.637C491.349 613.637 613.637 491.349 613.637 340.5C613.637 189.651 491.349 67.3633 340.5 67.3633C189.651 67.3633 67.3633 189.651 67.3633 340.5Z"/>
</mask>
<path d="M681 340.5C681 528.553 528.553 681 340.5 681C152.447 681 0 528.553 0 340.5C0 152.447 152.447 0 340.5 0C528.553 0 681 152.447 681 340.5ZM67.3633 340.5C67.3633 491.349 189.651 613.637 340.5 613.637C491.349 613.637 613.637 491.349 613.637 340.5C613.637 189.651 491.349 67.3633 340.5 67.3633C189.651 67.3633 67.3633 189.651 67.3633 340.5Z" fill="#693EDF" fill-opacity="0.2" stroke="#693EDF" stroke-width="2" mask="url(#path-1-inside-1_197_114)"/>
</svg>
