<svg width="150" height="90" viewBox="0 0 150 90" fill="none" xmlns="http://www.w3.org/2000/svg">
<g id="Clutch">
<g id="Group">
<path id="Vector" d="M46.9633 9.60156H40.2852V51.0069H46.9633V9.60156Z" fill="#171717"/>
<path id="Vector_2" d="M70.157 51.006H76.8352V22.957H70.157V37.7701H70.2775C70.2775 43.9636 64.9354 44.5688 63.4788 44.5688C59.5934 44.5688 58.7446 40.8039 58.7446 38.4984V22.957H52.0664V38.7421C52.0664 42.6274 53.4026 45.7845 55.3439 48.0926C57.1647 49.9135 60.0781 51.006 63.3583 51.006C65.6665 51.006 68.7003 50.3981 70.157 48.6978V51.006Z" fill="#171717"/>
<path id="Vector_3" d="M83.2708 51.0046H89.949V29.6339H94.8064V22.9557H89.949V13H83.2708V22.9557H78.293V29.6339H83.2708V51.0046Z" fill="#171717"/>
<path id="Vector_4" d="M110.347 50.8863C114.112 50.8863 117.633 49.5502 120.302 47.1215L121.274 46.1495L116.661 41.5358L115.689 42.7488C114.232 44.085 112.411 44.8133 110.347 44.8133C105.733 44.8133 102.332 41.5358 102.332 36.6784C102.332 31.8211 105.61 28.6641 110.347 28.6641C112.411 28.6641 114.232 29.2719 115.689 30.7286L116.661 31.5774L121.031 27.2074L120.059 26.2354C117.266 23.9272 113.988 22.4705 110.344 22.4705C102.089 22.3501 96.0156 28.2999 96.0156 36.6758C96.0183 44.5723 102.212 50.8863 110.347 50.8863Z" fill="#171717"/>
<path id="Vector_5" d="M131.11 35.3396C131.11 29.1461 135.724 28.5409 137.18 28.5409C141.066 28.5409 141.066 32.3058 141.066 34.6113V51.0042H147.744V34.4908C147.864 30.8491 147.015 27.5689 144.83 25.3839C143.01 23.5631 140.581 22.4706 137.544 22.4706C135.236 22.4706 132.81 23.0784 130.987 24.7788V9.60156H124.309V51.0069H130.987V35.3423H131.11V35.3396Z" fill="#171717"/>
<path id="Vector_6" d="M105.246 36.6795C105.246 39.3518 107.431 41.4137 109.98 41.4137C112.653 41.4137 114.714 39.2287 114.714 36.6795C114.714 34.0071 112.529 31.9453 109.98 31.9453C107.431 31.9453 105.246 34.0098 105.246 36.6795Z" fill="#E52421"/>
<path id="Vector_7" d="M21.4649 50.8882C26.8069 50.8882 31.9079 48.8237 35.3059 45.0589L36.2779 44.0869L31.9079 39.4732L31.0591 40.6862C28.6304 43.1149 24.9888 44.5715 21.4676 44.5715C13.9406 44.5715 8.59586 38.7422 8.59586 30.851C8.59586 22.8366 13.9379 17.1304 21.3444 17.1304C24.8656 17.1304 28.1431 18.5871 30.9359 21.0158L31.9079 21.9878L36.2779 17.6178L35.3059 16.6458C31.6643 12.7604 26.6837 10.8164 21.4649 10.8164C10.5372 10.9369 2.40234 19.4386 2.40234 30.851C2.40234 42.2633 10.5372 50.8882 21.4649 50.8882Z" fill="#171717"/>
<path id="Vector_8" d="M13.2081 72.1332H10.7795V74.3182H7.74295L12.6003 67.5195H9.93063L4.58594 74.6824V76.3827H10.659V78.8114H13.2081V76.3827H15.029V74.3182H13.2081V72.1332Z" fill="#171717"/>
<path id="Vector_9" d="M17.5811 75.7734C17.0964 75.7734 16.7322 75.8939 16.4886 76.2581C16.2449 76.5018 16.0039 76.8659 16.0039 77.3506C16.0039 77.8353 16.1244 78.1994 16.4886 78.4431C16.7322 78.6868 17.2169 78.9278 17.5811 78.9278C18.0657 78.9278 18.4299 78.8073 18.6736 78.4431C18.9172 78.1994 19.1582 77.7148 19.1582 77.3506C19.1582 76.8659 19.0377 76.5018 18.6736 76.2581C18.4326 75.8966 18.0684 75.7734 17.5811 75.7734Z" fill="#171717"/>
<path id="Vector_10" d="M28.0216 68.734C27.1727 67.762 25.8366 67.2773 24.2567 67.2773C23.4079 67.2773 22.8001 67.3978 22.0717 67.762C21.4639 68.1262 20.8587 68.4903 20.4946 69.0982C20.1304 69.706 19.8867 70.3112 19.8867 71.0422C19.8867 71.7705 20.0072 72.3784 20.3714 72.863C20.7355 73.3477 21.2202 73.835 21.8281 74.076C22.4359 74.3197 23.0411 74.5607 23.7721 74.5607C24.9851 74.5607 25.9571 74.1965 26.5649 73.5887C26.5649 74.6812 26.2007 75.4095 25.7161 76.0174C25.1082 76.6252 24.3799 76.8662 23.4079 76.8662C22.5591 76.8662 21.8307 76.6225 21.3434 76.2584L20.3714 78.2024C20.7355 78.446 21.2202 78.687 21.8281 78.8102C22.4359 78.9307 22.9206 79.0539 23.5284 79.0539C24.6209 79.0539 25.7134 78.8102 26.5649 78.3255C27.4137 77.8409 28.1421 77.1125 28.6294 76.261C29.1141 75.289 29.3578 74.1965 29.3578 72.9835C29.3578 71.0422 28.8704 69.706 28.0216 68.734ZM25.9571 72.1347C25.5929 72.4989 25.1082 72.6194 24.6209 72.6194C24.0131 72.6194 23.5284 72.4989 23.2847 72.1347C22.9206 71.7705 22.8001 71.4064 22.8001 70.9217C22.8001 70.437 22.9206 69.9497 23.2847 69.7087C23.6489 69.465 24.1336 69.224 24.6209 69.224C25.2287 69.224 25.7134 69.3445 26.0776 69.7087C26.4417 70.0729 26.5622 70.437 26.5622 70.9217C26.4444 71.4064 26.3212 71.7705 25.9571 72.1347Z" fill="#171717"/>
<path id="Vector_11" d="M34.4553 65.2109L29.1133 80.3908H31.4215L36.643 65.2109H34.4553Z" fill="#171717"/>
<path id="Vector_12" d="M40.5316 71.769H39.5596L39.6801 69.584H44.4143V67.5195H37.4924L36.8846 73.8336H39.7979C40.7699 73.8336 41.4983 73.9541 41.8624 74.1977C42.2266 74.4414 42.4703 74.8056 42.4703 75.2902C42.4703 75.7749 42.2266 76.1391 41.8624 76.3827C41.4983 76.6264 41.0136 76.7469 40.2853 76.7469C39.6774 76.7469 39.0723 76.6264 38.5849 76.5032C37.9771 76.3827 37.4924 76.0186 37.1283 75.7749L36.1562 77.7189C36.6409 78.0831 37.3693 78.4472 38.1003 78.5677C38.8286 78.8114 39.6774 78.9319 40.4084 78.9319C41.3804 78.9319 42.3525 78.8114 42.9576 78.4472C43.6859 78.0831 44.1706 77.7189 44.5348 77.1111C44.899 76.5032 45.0194 75.8981 45.0194 75.2902C45.0194 74.1977 44.6553 73.3462 43.9269 72.7411C43.2013 72.0127 42.1088 71.769 40.5316 71.769Z" fill="#171717"/>
<path id="Vector_13" d="M47.6943 75.7734C47.2097 75.7734 46.8455 75.8939 46.6019 76.2581C46.3582 76.5018 46.1172 76.8659 46.1172 77.3506C46.1172 77.8353 46.2377 78.1994 46.6019 78.4431C46.8455 78.6868 47.3302 78.9278 47.6943 78.9278C48.179 78.9278 48.5432 78.8073 48.7869 78.4431C49.0305 78.1994 49.2715 77.7148 49.2715 77.3506C49.2715 76.8659 49.151 76.5018 48.7869 76.2581C48.5432 75.8966 48.179 75.7734 47.6943 75.7734Z" fill="#171717"/>
<path id="Vector_14" d="M57.5276 68.0057C56.7993 67.521 55.9505 67.2773 54.9785 67.2773C54.0064 67.2773 53.1576 67.521 52.4293 68.0057C51.7009 68.4903 51.0931 69.0982 50.7289 70.0702C50.3648 70.919 50.1211 72.0142 50.1211 73.2272C50.1211 74.4402 50.3648 75.5354 50.7289 76.3842C51.0931 77.233 51.7009 77.9614 52.4293 78.4487C53.1576 78.9361 54.0064 79.1771 54.9785 79.1771C55.9505 79.1771 56.7993 78.9334 57.5276 78.4487C58.256 77.9641 58.8638 77.3562 59.228 76.3842C59.5921 75.5354 59.8358 74.4402 59.8358 73.2272C59.8358 72.0142 59.5921 70.919 59.228 70.0702C58.8638 69.0982 58.256 68.493 57.5276 68.0057ZM56.6788 75.8995C56.3146 76.5074 55.7068 76.7484 55.1016 76.7484C54.3733 76.7484 53.8886 76.5047 53.5245 75.8995C53.1603 75.2917 52.9166 74.4429 52.9166 73.1067C52.9166 71.7705 53.1603 70.9217 53.5245 70.3139C53.8886 69.706 54.4965 69.465 55.1016 69.465C55.83 69.465 56.3146 69.7087 56.6788 70.3139C57.043 70.919 57.2866 71.7705 57.2866 73.1067C57.284 74.4429 57.043 75.2917 56.6788 75.8995Z" fill="#171717"/>
<path id="Vector_15" d="M81.4469 69.8273H76.3459C76.2254 69.8273 75.9818 69.7068 75.9818 69.5836L74.4046 64.7263C74.2841 64.3621 73.6763 64.3621 73.5558 64.7263L71.9786 69.5836C71.9786 69.7041 71.7349 69.8273 71.6144 69.8273H66.5134C66.1492 69.8273 65.9056 70.3119 66.2697 70.5556L70.3988 73.5921C70.5193 73.7126 70.6424 73.8358 70.5192 74.0768L68.9421 78.9341C68.8216 79.2983 69.3063 79.6625 69.5499 79.4188L73.6789 76.3823C73.7994 76.2618 74.0431 76.2618 74.1636 76.3823L78.2926 79.4188C78.6568 79.6625 79.021 79.2983 78.9005 78.9341L77.3233 74.0768C77.3233 73.9563 77.3233 73.7126 77.4438 73.5921L81.5728 70.5556C82.0548 70.3146 81.9316 69.8273 81.4469 69.8273Z" fill="#F2C114"/>
<path id="Vector_16" d="M97.8415 69.8273H92.7405C92.62 69.8273 92.3763 69.7068 92.3763 69.5836L90.7991 64.7263C90.6786 64.3621 90.0708 64.3621 89.9503 64.7263L88.3731 69.5836C88.3731 69.7041 88.1295 69.8273 88.009 69.8273H82.9079C82.5438 69.8273 82.3001 70.3119 82.6643 70.5556L86.7933 73.5921C86.9138 73.7126 87.037 73.8358 86.9138 74.0768L85.3366 78.9341C85.2161 79.2983 85.7008 79.6625 85.9445 79.4188L90.0735 76.3823C90.194 76.2618 90.4376 76.2618 90.5581 76.3823L94.6872 79.4188C95.0513 79.6625 95.4155 79.2983 95.295 78.9341L93.7178 74.0768C93.7178 73.9563 93.7178 73.7126 93.8383 73.5921L97.9673 70.5556C98.3261 70.3146 98.2057 69.8273 97.8415 69.8273Z" fill="#F2C114"/>
<path id="Vector_17" d="M114.595 69.8273H109.494C109.374 69.8273 109.13 69.7068 109.13 69.5836L107.553 64.7263C107.433 64.3621 106.825 64.3621 106.704 64.7263L105.127 69.5836C105.127 69.7041 104.883 69.8273 104.763 69.8273H99.6618C99.2977 69.8273 99.054 70.3119 99.4182 70.5556L103.547 73.5921C103.668 73.7126 103.791 73.8358 103.668 74.0768L102.091 78.9341C101.97 79.2983 102.455 79.6625 102.698 79.4188L106.827 76.3823C106.948 76.2618 107.192 76.2618 107.312 76.3823L111.441 79.4188C111.805 79.6625 112.169 79.2983 112.049 78.9341L110.472 74.0768C110.472 73.9563 110.472 73.7126 110.592 73.5921L114.721 70.5556C115.083 70.3146 114.96 69.8273 114.595 69.8273Z" fill="#F2C114"/>
<path id="Vector_18" d="M131.232 69.8273H126.131C126.011 69.8273 125.767 69.7068 125.767 69.5836L124.19 64.7263C124.069 64.3621 123.461 64.3621 123.341 64.7263L121.764 69.5836C121.764 69.7041 121.52 69.8273 121.4 69.8273H116.299C115.934 69.8273 115.691 70.3119 116.055 70.5556L120.184 73.5921C120.304 73.7126 120.428 73.8358 120.304 74.0768L118.727 78.9341C118.607 79.2983 119.091 79.6625 119.335 79.4188L123.464 76.3823C123.585 76.2618 123.828 76.2618 123.949 76.3823L128.078 79.4188C128.442 79.6625 128.806 79.2983 128.686 78.9341L127.108 74.0768C127.108 73.9563 127.108 73.7126 127.229 73.5921L131.358 70.5556C131.717 70.3146 131.596 69.8273 131.232 69.8273Z" fill="#F2C114"/>
<path id="Vector_19" d="M147.745 70.5556C148.109 70.3119 147.866 69.8273 147.502 69.8273H142.401C142.28 69.8273 142.036 69.7068 142.036 69.5836L140.459 64.7263C140.339 64.3621 139.731 64.3621 139.61 64.7263L138.033 69.5836C138.033 69.7041 137.79 69.8273 137.669 69.8273H132.568C132.204 69.8273 131.96 70.3119 132.324 70.5556L136.453 73.5921C136.574 73.7126 136.697 73.8358 136.574 74.0768L134.997 78.9341C134.876 79.2983 135.361 79.6625 135.605 79.4188L139.734 76.3823C139.854 76.2618 140.098 76.2618 140.218 76.3823L144.347 79.4188C144.711 79.6625 145.076 79.2983 144.955 78.9341L143.378 74.0768C143.378 73.9563 143.378 73.7126 143.498 73.5921L147.745 70.5556Z" fill="#F2C114"/>
</g>
</g>
</svg>
