<svg width="34" height="48" viewBox="0 0 34 48" fill="none" xmlns="http://www.w3.org/2000/svg">
<g id="CSS3_logo_and_wordmark 1" clip-path="url(#clip0_359_1943)">
<g id="layer1">
<g id="g3013">
<path id="polygon2989" d="M34.0002 9.43359L30.9027 44.1397L16.9794 48.0005L3.09442 44.1452L0.000213623 9.43359H34.0002Z" fill="#264DE4"/>
<path id="polygon2991" d="M28.2509 41.9295L30.8979 12.2715H17.0002V45.0492L28.2509 41.9295Z" fill="#2965F1"/>
<path id="polygon2993" d="M7.09361 25.1445L7.4751 29.4017H17.0002V25.1445H7.09361Z" fill="#EBEBEB"/>
<path id="polygon2995" d="M17.0002 16.5293H16.9855H6.32707L6.714 20.7866H17.0002V16.5293Z" fill="#EBEBEB"/>
<path id="polygon2997" d="M17.0002 40.6312V36.2019L16.9816 36.2068L12.2411 34.9266L11.9381 31.5312H9.63461H7.66529L8.26162 38.2157L16.9806 40.6366L17.0002 40.6312Z" fill="#EBEBEB"/>
<path id="path2999" d="M8.00188 0H13.1572V2.15625H10.1577V4.3125H13.1572V6.46875H8.00188V0Z" fill="#171717"/>
<path id="path3001" d="M14.1882 0H19.3435V1.875H16.3441V2.25H19.3435V6.5625H14.1882V4.59375H17.1877V4.21875H14.1882V0Z" fill="#171717"/>
<path id="path3003" d="M20.3746 0H25.5299V1.875H22.5304V2.25H25.5299V6.5625H20.3746V4.59375H23.374V4.21875H20.3746V0Z" fill="#171717"/>
<path id="polygon3005" d="M22.2268 29.4032L21.7328 34.9245L16.9855 36.2061V40.6352L25.7114 38.2164L25.7755 37.4971L26.7757 26.2892L26.8795 25.146L27.648 16.5293H16.9855V20.7866H22.9833L22.596 25.146H16.9855V29.4032H22.2268Z" fill="white"/>
</g>
</g>
</g>
<defs>
<clipPath id="clip0_359_1943">
<rect width="34" height="48" fill="white"/>
</clipPath>
</defs>
</svg>
