<svg width="32" height="47" viewBox="0 0 32 47" fill="none" xmlns="http://www.w3.org/2000/svg">
<g id="figma_logo" clip-path="url(#clip0_335_1647)">
<path id="Vector" d="M16.0807 23.4792C16.0807 21.4697 16.879 19.5425 18.3 18.1216C19.7209 16.7006 21.6481 15.9023 23.6576 15.9023C25.6671 15.9023 27.5943 16.7006 29.0153 18.1216C30.4362 19.5425 31.2345 21.4697 31.2345 23.4792C31.2345 25.4887 30.4362 27.4159 29.0153 28.8369C27.5943 30.2578 25.6671 31.0561 23.6576 31.0561C21.6481 31.0561 19.7209 30.2578 18.3 28.8369C16.879 27.4159 16.0807 25.4887 16.0807 23.4792Z" fill="#1ABCFE"/>
<path id="Vector_2" d="M0.926941 38.6316C0.926941 36.622 1.72522 34.6948 3.14615 33.2739C4.56709 31.853 6.4943 31.0547 8.50381 31.0547H16.0807V38.6316C16.0807 40.6411 15.2824 42.5683 13.8615 43.9892C12.4405 45.4101 10.5133 46.2084 8.50381 46.2084C6.4943 46.2084 4.56709 45.4101 3.14615 43.9892C1.72522 42.5683 0.926941 40.6411 0.926941 38.6316H0.926941Z" fill="#0ACF83"/>
<path id="Vector_3" d="M16.0807 0.748047V15.9018H23.6575C25.6671 15.9018 27.5943 15.1035 29.0152 13.6826C30.4361 12.2616 31.2344 10.3344 31.2344 8.32491C31.2344 6.3154 30.4361 4.3882 29.0152 2.96726C27.5943 1.54632 25.6671 0.748047 23.6575 0.748047L16.0807 0.748047Z" fill="#FF7262"/>
<path id="Vector_4" d="M0.926941 8.32491C0.926941 10.3344 1.72522 12.2616 3.14615 13.6826C4.56709 15.1035 6.4943 15.9018 8.50381 15.9018H16.0807V0.748047H8.50381C6.4943 0.748047 4.56709 1.54632 3.14615 2.96726C1.72522 4.3882 0.926941 6.3154 0.926941 8.32491H0.926941Z" fill="#F24E1E"/>
<path id="Vector_5" d="M0.926941 23.4792C0.926941 25.4887 1.72522 27.4159 3.14615 28.8369C4.56709 30.2578 6.4943 31.0561 8.50381 31.0561H16.0807V15.9023H8.50381C6.4943 15.9023 4.56709 16.7006 3.14615 18.1216C1.72522 19.5425 0.926941 21.4697 0.926941 23.4792H0.926941Z" fill="#A259FF"/>
</g>
<defs>
<clipPath id="clip0_335_1647">
<rect width="30.3075" height="45.4612" fill="white" transform="translate(0.926941 0.748047)"/>
</clipPath>
</defs>
</svg>
