<svg width="30" height="30" viewBox="0 0 30 30" fill="none" xmlns="http://www.w3.org/2000/svg">
<g id="fluent:call-20-regular">
<g id="Vector">
<mask id="path-1-outside-1_3351_15486" maskUnits="userSpaceOnUse" x="4.62109" y="1.97266" width="20" height="26" fill="black">
<rect fill="white" x="4.62109" y="1.97266" width="20" height="26"/>
<path d="M10.481 3.09975L9.40549 3.42375C8.44786 3.71254 7.59265 4.26888 6.94053 5.0273C6.2884 5.78572 5.86651 6.71465 5.72449 7.70475C5.27899 10.8067 6.27499 14.4337 8.67649 18.5932C11.072 22.7422 13.709 25.4152 16.6115 26.5852C17.5441 26.9611 18.565 27.0613 19.5528 26.8738C20.5407 26.6863 21.4539 26.2191 22.184 25.5277L22.997 24.7567C23.5249 24.2571 23.8535 23.5828 23.9216 22.8591C23.9898 22.1355 23.7929 21.4117 23.3675 20.8222L21.3335 18.0022C21.0585 17.6215 20.6713 17.3364 20.2261 17.1869C19.7809 17.0373 19.3001 17.0308 18.851 17.1682L15.7745 18.1087L15.695 18.1237C15.356 18.1732 14.573 17.4397 13.598 15.7507C12.578 13.9837 12.368 12.9502 12.6485 12.6832L14.213 11.2237C14.7845 10.6901 15.1749 9.99105 15.3296 9.22452C15.4842 8.45799 15.3954 7.66229 15.0755 6.94875L14.0825 4.74225C13.7839 4.07826 13.254 3.54551 12.5917 3.24331C11.9293 2.94112 11.1782 2.89009 10.481 3.09975ZM12.7175 5.35725L13.7075 7.56375C13.8996 7.99172 13.9532 8.46905 13.8606 8.92896C13.7681 9.38887 13.5342 9.80835 13.1915 10.1287L11.6225 11.5897C10.6175 12.5407 10.9505 14.1637 12.3005 16.5007C13.5695 18.6997 14.7275 19.7857 15.9725 19.5967L16.1585 19.5577L19.2905 18.6022C19.4402 18.5563 19.6005 18.5583 19.749 18.6081C19.8975 18.6578 20.0267 18.7528 20.1185 18.8797L22.1525 21.6997C22.3655 21.9944 22.4642 22.3564 22.4302 22.7184C22.3963 23.0804 22.232 23.4178 21.968 23.6677L21.1535 24.4387C20.632 24.9323 19.9798 25.2657 19.2744 25.3995C18.5689 25.5332 17.8399 25.4617 17.174 25.1932C14.627 24.1672 12.2195 21.7267 9.97699 17.8432C7.72849 13.9507 6.81799 10.6402 7.20949 7.91775C7.31083 7.21039 7.61217 6.54672 8.07802 6.00486C8.54387 5.46301 9.15484 5.06554 9.83899 4.85925L10.9145 4.53525C11.2632 4.43047 11.6381 4.45609 11.9693 4.60733C12.3004 4.75858 12.5653 5.02512 12.7145 5.35725"/>
</mask>
<path d="M10.481 3.09975L9.40549 3.42375C8.44786 3.71254 7.59265 4.26888 6.94053 5.0273C6.2884 5.78572 5.86651 6.71465 5.72449 7.70475C5.27899 10.8067 6.27499 14.4337 8.67649 18.5932C11.072 22.7422 13.709 25.4152 16.6115 26.5852C17.5441 26.9611 18.565 27.0613 19.5528 26.8738C20.5407 26.6863 21.4539 26.2191 22.184 25.5277L22.997 24.7567C23.5249 24.2571 23.8535 23.5828 23.9216 22.8591C23.9898 22.1355 23.7929 21.4117 23.3675 20.8222L21.3335 18.0022C21.0585 17.6215 20.6713 17.3364 20.2261 17.1869C19.7809 17.0373 19.3001 17.0308 18.851 17.1682L15.7745 18.1087L15.695 18.1237C15.356 18.1732 14.573 17.4397 13.598 15.7507C12.578 13.9837 12.368 12.9502 12.6485 12.6832L14.213 11.2237C14.7845 10.6901 15.1749 9.99105 15.3296 9.22452C15.4842 8.45799 15.3954 7.66229 15.0755 6.94875L14.0825 4.74225C13.7839 4.07826 13.254 3.54551 12.5917 3.24331C11.9293 2.94112 11.1782 2.89009 10.481 3.09975ZM12.7175 5.35725L13.7075 7.56375C13.8996 7.99172 13.9532 8.46905 13.8606 8.92896C13.7681 9.38887 13.5342 9.80835 13.1915 10.1287L11.6225 11.5897C10.6175 12.5407 10.9505 14.1637 12.3005 16.5007C13.5695 18.6997 14.7275 19.7857 15.9725 19.5967L16.1585 19.5577L19.2905 18.6022C19.4402 18.5563 19.6005 18.5583 19.749 18.6081C19.8975 18.6578 20.0267 18.7528 20.1185 18.8797L22.1525 21.6997C22.3655 21.9944 22.4642 22.3564 22.4302 22.7184C22.3963 23.0804 22.232 23.4178 21.968 23.6677L21.1535 24.4387C20.632 24.9323 19.9798 25.2657 19.2744 25.3995C18.5689 25.5332 17.8399 25.4617 17.174 25.1932C14.627 24.1672 12.2195 21.7267 9.97699 17.8432C7.72849 13.9507 6.81799 10.6402 7.20949 7.91775C7.31083 7.21039 7.61217 6.54672 8.07802 6.00486C8.54387 5.46301 9.15484 5.06554 9.83899 4.85925L10.9145 4.53525C11.2632 4.43047 11.6381 4.45609 11.9693 4.60733C12.3004 4.75858 12.5653 5.02512 12.7145 5.35725" fill="#693EDF"/>
<path d="M10.481 3.09975L10.4234 2.90822L10.4233 2.90825L10.481 3.09975ZM9.40549 3.42375L9.3478 3.23225L9.34774 3.23226L9.40549 3.42375ZM5.72449 7.70475L5.92246 7.73318L5.92246 7.73314L5.72449 7.70475ZM8.67649 18.5932L8.50328 18.6932L8.50329 18.6932L8.67649 18.5932ZM16.6115 26.5852L16.5367 26.7707L16.5367 26.7707L16.6115 26.5852ZM22.184 25.5277L22.3215 25.673L22.3216 25.6729L22.184 25.5277ZM22.997 24.7567L22.8595 24.6115L22.8594 24.6116L22.997 24.7567ZM23.3675 20.8222L23.2053 20.9392L23.2053 20.9393L23.3675 20.8222ZM21.3335 18.0022L21.4957 17.8852L21.4956 17.8851L21.3335 18.0022ZM18.851 17.1682L18.9095 17.3595L18.9095 17.3595L18.851 17.1682ZM15.7745 18.1087L15.8116 18.3053L15.8224 18.3032L15.833 18.3L15.7745 18.1087ZM15.695 18.1237L15.7239 18.3218L15.7321 18.3203L15.695 18.1237ZM13.598 15.7507L13.4248 15.8507L13.4248 15.8507L13.598 15.7507ZM12.6485 12.6832L12.5121 12.537L12.5106 12.5384L12.6485 12.6832ZM14.213 11.2237L14.3494 11.37L14.3495 11.3699L14.213 11.2237ZM15.0755 6.94875L15.258 6.86692L15.2579 6.86667L15.0755 6.94875ZM14.0825 4.74225L13.9001 4.82427L13.9001 4.82432L14.0825 4.74225ZM13.7075 7.56375L13.525 7.64562L13.525 7.64565L13.7075 7.56375ZM13.1915 10.1287L13.3278 10.2751L13.3281 10.2748L13.1915 10.1287ZM11.6225 11.5897L11.4862 11.4434L11.485 11.4445L11.6225 11.5897ZM12.3005 16.5007L12.4737 16.4008L12.4737 16.4007L12.3005 16.5007ZM15.9725 19.5967L16.0026 19.7948L16.0135 19.7925L15.9725 19.5967ZM16.1585 19.5577L16.1995 19.7535L16.2083 19.7517L16.2168 19.749L16.1585 19.5577ZM19.2905 18.6022L19.3488 18.7935L19.3492 18.7934L19.2905 18.6022ZM20.1185 18.8797L20.2807 18.7627L20.2806 18.7626L20.1185 18.8797ZM22.1525 21.6997L21.9903 21.8167L21.9904 21.8169L22.1525 21.6997ZM21.968 23.6677L22.1055 23.813L22.1055 23.813L21.968 23.6677ZM21.1535 24.4387L21.291 24.584L21.291 24.584L21.1535 24.4387ZM17.174 25.1932L17.2488 25.0077L17.2487 25.0077L17.174 25.1932ZM9.97699 17.8432L10.1502 17.7432L10.1502 17.7432L9.97699 17.8432ZM7.20949 7.91775L7.40745 7.94621L7.40747 7.94611L7.20949 7.91775ZM9.83899 4.85925L9.7813 4.66775L9.78125 4.66776L9.83899 4.85925ZM10.9145 4.53525L10.8569 4.34371L10.8568 4.34375L10.9145 4.53525ZM10.4233 2.90825L9.3478 3.23225L9.46318 3.61524L10.5387 3.29124L10.4233 2.90825ZM9.34774 3.23226C8.35363 3.53206 7.46584 4.1096 6.78888 4.89691L7.09217 5.1577C7.71946 4.42817 8.54208 3.89302 9.46323 3.61523L9.34774 3.23226ZM6.78888 4.89691C6.11191 5.68422 5.67394 6.64853 5.52652 7.67635L5.92246 7.73314C6.05907 6.78076 6.46489 5.88722 7.09217 5.1577L6.78888 4.89691ZM5.52652 7.67631C5.07196 10.8414 6.0911 14.5152 8.50328 18.6932L8.84969 18.4932C6.45888 14.3523 5.48601 10.7721 5.92246 7.73318L5.52652 7.67631ZM8.50329 18.6932C10.9095 22.8608 13.5754 25.577 16.5367 26.7707L16.6863 26.3997C13.8426 25.2535 11.2345 22.6237 8.84969 18.4932L8.50329 18.6932ZM16.5367 26.7707C17.5048 27.1609 18.5646 27.2649 19.5901 27.0703L19.5156 26.6773C18.5653 26.8576 17.5833 26.7613 16.6863 26.3997L16.5367 26.7707ZM19.5901 27.0703C20.6156 26.8757 21.5636 26.3907 22.3215 25.673L22.0465 25.3825C21.3442 26.0476 20.4658 26.497 19.5156 26.6773L19.5901 27.0703ZM22.3216 25.6729L23.1346 24.9019L22.8594 24.6116L22.0464 25.3826L22.3216 25.6729ZM23.1345 24.902C23.6976 24.3691 24.0481 23.6498 24.1207 22.8779L23.7225 22.8404C23.6589 23.5158 23.3522 24.1452 22.8595 24.6115L23.1345 24.902ZM24.1207 22.8779C24.1934 22.106 23.9834 21.3339 23.5297 20.7052L23.2053 20.9393C23.6023 21.4894 23.7861 22.1649 23.7225 22.8404L24.1207 22.8779ZM23.5297 20.7052L21.4957 17.8852L21.1713 18.1192L23.2053 20.9392L23.5297 20.7052ZM21.4956 17.8851C21.1962 17.4706 20.7745 17.1601 20.2898 16.9973L20.1624 17.3764C20.568 17.5127 20.9208 17.7725 21.1714 18.1194L21.4956 17.8851ZM20.2898 16.9973C19.805 16.8344 19.2814 16.8273 18.7925 16.977L18.9095 17.3595C19.3187 17.2342 19.7568 17.2402 20.1624 17.3764L20.2898 16.9973ZM18.7925 16.977L15.716 17.9175L15.833 18.3L18.9095 17.3595L18.7925 16.977ZM15.7374 17.9122L15.6579 17.9272L15.7321 18.3203L15.8116 18.3053L15.7374 17.9122ZM15.6661 17.9258C15.6553 17.9274 15.5951 17.9243 15.4701 17.8434C15.3527 17.7675 15.2053 17.6405 15.0317 17.4532C14.6852 17.0795 14.2542 16.4875 13.7712 15.6508L13.4248 15.8507C13.9167 16.703 14.3648 17.3222 14.7383 17.7252C14.9247 17.9262 15.0975 18.0788 15.2528 18.1793C15.4004 18.2748 15.5652 18.3448 15.7239 18.3216L15.6661 17.9258ZM13.7712 15.6508C13.2655 14.7747 12.9667 14.0906 12.828 13.6001C12.7585 13.3542 12.7318 13.166 12.735 13.0314C12.7383 12.8921 12.7722 12.8416 12.7864 12.8281L12.5106 12.5384C12.3845 12.6584 12.3395 12.8372 12.3351 13.022C12.3307 13.2114 12.3677 13.4422 12.4431 13.7089C12.5943 14.2436 12.9105 14.9598 13.4248 15.8507L13.7712 15.6508ZM12.7849 12.8295L14.3494 11.37L14.0766 11.0775L12.5121 12.537L12.7849 12.8295ZM14.3495 11.3699C14.9515 10.8078 15.3627 10.0715 15.5256 9.26407L15.1335 9.18496C14.9871 9.91061 14.6176 10.5723 14.0765 11.0776L14.3495 11.3699ZM15.5256 9.26407C15.6885 8.45666 15.595 7.61852 15.258 6.86692L14.893 7.03057C15.1958 7.70605 15.2799 8.45932 15.1335 9.18496L15.5256 9.26407ZM15.2579 6.86667L14.2649 4.66017L13.9001 4.82432L14.8931 7.03082L15.2579 6.86667ZM14.2649 4.66022C13.9464 3.95197 13.3812 3.3837 12.6747 3.06136L12.5087 3.42527C13.1269 3.70732 13.6214 4.20455 13.9001 4.82427L14.2649 4.66022ZM12.6747 3.06136C11.9682 2.739 11.167 2.68459 10.4234 2.90822L10.5386 3.29127C11.1893 3.09559 11.8905 3.14323 12.5087 3.42527L12.6747 3.06136ZM12.535 5.43912L13.525 7.64562L13.89 7.48187L12.9 5.27537L12.535 5.43912ZM13.525 7.64565C13.7001 8.03559 13.7489 8.47049 13.6646 8.88951L14.0567 8.9684C14.1575 8.46761 14.0991 7.94786 13.8899 7.48184L13.525 7.64565ZM13.6646 8.88951C13.5803 9.30854 13.3671 9.69074 13.0549 9.98265L13.3281 10.2748C13.7012 9.92597 13.956 9.46919 14.0567 8.9684L13.6646 8.88951ZM13.0552 9.98238L11.4862 11.4434L11.7588 11.7361L13.3278 10.2751L13.0552 9.98238ZM11.485 11.4445C10.9224 11.9769 10.7472 12.6934 10.8807 13.5561C11.0128 14.4097 11.4483 15.4254 12.1273 16.6008L12.4737 16.4007C11.8027 15.2391 11.3967 14.2748 11.276 13.4949C11.1567 12.7241 11.3176 12.1536 11.76 11.735L11.485 11.4445ZM12.1273 16.6007C12.7658 17.7072 13.3858 18.551 14.0146 19.0954C14.6471 19.6431 15.3046 19.9004 16.0025 19.7945L15.9425 19.399C15.3954 19.4821 14.8514 19.2909 14.2764 18.793C13.6977 18.2919 13.1042 17.4933 12.4737 16.4008L12.1273 16.6007ZM16.0135 19.7925L16.1995 19.7535L16.1174 19.362L15.9314 19.401L16.0135 19.7925ZM16.2168 19.749L19.3488 18.7935L19.2321 18.4109L16.1001 19.3665L16.2168 19.749ZM19.3492 18.7934C19.459 18.7597 19.5766 18.7612 19.6855 18.7977L19.8126 18.4184C19.6245 18.3554 19.4214 18.3528 19.2318 18.4111L19.3492 18.7934ZM19.6855 18.7977C19.7944 18.8342 19.8891 18.9039 19.9564 18.9969L20.2806 18.7626C20.1643 18.6018 20.0007 18.4815 19.8126 18.4184L19.6855 18.7977ZM19.9563 18.9967L21.9903 21.8167L22.3147 21.5827L20.2807 18.7627L19.9563 18.9967ZM21.9904 21.8169C22.175 22.0723 22.2605 22.386 22.2311 22.6998L22.6294 22.7371C22.6678 22.3268 22.556 21.9166 22.3146 21.5826L21.9904 21.8169ZM22.2311 22.6998C22.2017 23.0135 22.0593 23.3059 21.8305 23.5225L22.1055 23.813C22.4047 23.5297 22.5909 23.1474 22.6294 22.7371L22.2311 22.6998ZM21.8305 23.5225L21.016 24.2935L21.291 24.584L22.1055 23.813L21.8305 23.5225ZM21.016 24.2935C20.5223 24.7607 19.9049 25.0764 19.2371 25.203L19.3116 25.596C20.0547 25.4551 20.7417 25.1039 21.291 24.584L21.016 24.2935ZM19.2371 25.203C18.5693 25.3296 17.8792 25.2618 17.2488 25.0077L17.0992 25.3787C17.8007 25.6615 18.5686 25.7369 19.3116 25.596L19.2371 25.203ZM17.2487 25.0077C14.7616 24.0059 12.3829 21.6098 10.1502 17.7432L9.80379 17.9433C12.0561 21.8437 14.4923 24.3286 17.0993 25.3788L17.2487 25.0077ZM10.1502 17.7432C7.91143 13.8676 7.02519 10.6045 7.40745 7.94621L7.01153 7.88928C6.61079 10.676 7.54555 14.0339 9.80381 17.9433L10.1502 17.7432ZM7.40747 7.94611C7.50341 7.27648 7.78867 6.6482 8.22968 6.13525L7.92636 5.87448C7.43567 6.44523 7.11826 7.1443 7.01151 7.88938L7.40747 7.94611ZM8.22968 6.13525C8.67068 5.62229 9.24906 5.24602 9.89673 5.05073L9.78125 4.66776C9.06061 4.88506 8.41706 5.30373 7.92636 5.87448L8.22968 6.13525ZM9.89668 5.05074L10.9722 4.72674L10.8568 4.34375L9.7813 4.66775L9.89668 5.05074ZM10.972 4.72678C11.2742 4.63598 11.5991 4.65818 11.8862 4.78926L12.0523 4.42541C11.677 4.254 11.2521 4.22496 10.8569 4.34371L10.972 4.72678ZM11.8862 4.78926C12.1732 4.92034 12.4028 5.15134 12.532 5.43918L12.8969 5.27531C12.7279 4.89889 12.4277 4.59681 12.0523 4.42541L11.8862 4.78926Z" fill="#693EDF" mask="url(#path-1-outside-1_3351_15486)"/>
</g>
</g>
</svg>
