<svg width="86" height="48" viewBox="0 0 86 48" fill="none" xmlns="http://www.w3.org/2000/svg">
<g id="Frame 193">
<g id="Group">
<path id="Vector" d="M63.6829 14.4627L70.7836 2.16225C71.1843 1.47269 70.942 0.596736 70.2618 0.196038C69.5815 -0.204653 68.6963 0.0283022 68.3049 0.717874L61.111 13.1767C55.6223 10.6701 49.4442 9.27226 42.8 9.27226C36.1559 9.27226 29.9777 10.67 24.4891 13.1767L17.2952 0.717874C16.8945 0.0283022 16.0186 -0.204653 15.329 0.196038C14.6394 0.596736 14.4064 1.47269 14.8071 2.16225L21.9079 14.4627C9.66331 21.0975 1.36979 33.4912 0 48H85.6002C84.2304 33.4911 75.9368 21.0974 63.6829 14.4627ZM23.1472 35.9792C21.1624 35.9792 19.5596 34.3671 19.5596 32.3916C19.5596 30.4067 21.1717 28.8039 23.1472 28.8039C25.1321 28.8039 26.7349 30.416 26.7349 32.3916C26.7442 34.3671 25.1321 35.9792 23.1472 35.9792ZM62.4436 35.9792C60.4588 35.9792 58.856 34.3671 58.856 32.3916C58.856 30.4067 60.4681 28.8039 62.4436 28.8039C64.4285 28.8039 66.0312 30.416 66.0312 32.3916C66.0406 34.3671 64.4285 35.9792 62.4436 35.9792Z" fill="#32DE84"/>
</g>
</g>
</svg>
