<svg width="24" height="24" viewBox="0 0 24 24" fill="none" xmlns="http://www.w3.org/2000/svg">
<g id="Frame 1171275400">
<path id="Subtract" fill-rule="evenodd" clip-rule="evenodd" d="M12.7625 0.450942C12.3563 -0.150314 11.471 -0.150314 11.0648 0.450943L9.55144 2.69089C9.28847 3.08013 8.79446 3.24065 8.35292 3.08031L5.81201 2.15766C5.12997 1.91 4.41373 2.43038 4.43851 3.15557L4.53082 5.85723C4.54686 6.3267 4.24155 6.74693 3.79009 6.87676L1.19214 7.62382C0.494781 7.82435 0.221203 8.66634 0.667506 9.23847L2.33018 11.3699C2.61911 11.7403 2.61911 12.2597 2.33018 12.6301L0.667505 14.7615C0.221202 15.3337 0.494781 16.1756 1.19214 16.3762L3.79009 17.1232C4.24155 17.2531 4.54686 17.6733 4.53082 18.1428L4.43851 20.8444C4.41373 21.5696 5.12997 22.09 5.81201 21.8423L8.35292 20.9197C8.79446 20.7594 9.28847 20.9199 9.55144 21.3091L11.0648 23.5491C11.471 24.1503 12.3563 24.1503 12.7625 23.5491L14.2758 21.3091C14.5388 20.9199 15.0328 20.7594 15.4743 20.9197L18.0152 21.8423C18.6973 22.09 19.4135 21.5696 19.3887 20.8444L19.2964 18.1428C19.2804 17.6733 19.5857 17.2531 20.0372 17.1232L22.6351 16.3762C23.3325 16.1756 23.6061 15.3337 23.1597 14.7615L21.4971 12.6301C21.2081 12.2597 21.2081 11.7403 21.4971 11.3699L23.1597 9.23847C23.6061 8.66634 23.3325 7.82435 22.6351 7.62382L20.0372 6.87676C19.5857 6.74693 19.2804 6.3267 19.2964 5.85723L19.3887 3.15557C19.4135 2.43038 18.6973 1.91 18.0152 2.15766L15.4743 3.08031C15.0328 3.24065 14.5388 3.08013 14.2758 2.69089L12.7625 0.450942ZM16.5309 8.03217C16.6729 8.02363 16.8152 8.04307 16.9496 8.08941C17.6669 8.33658 17.9043 9.26156 17.4051 9.82787L17.4042 9.82891L12.048 15.8617C11.952 15.9697 11.8354 16.0575 11.705 16.1198C11.5745 16.1821 11.433 16.2177 11.2886 16.2245C11.1443 16.2314 11 16.2093 10.8643 16.1596C10.7286 16.1099 10.6042 16.0336 10.4984 15.9351L7.00406 12.6856C6.79565 12.4899 6.6732 12.2197 6.66394 11.9339C6.65468 11.648 6.75939 11.3704 6.95475 11.1617C7.15007 10.953 7.42007 10.8301 7.70562 10.8195C7.99116 10.8088 8.26958 10.9111 8.47998 11.1046L8.48124 11.1058L11.165 13.5953L15.7853 8.39448C15.8797 8.28808 15.9942 8.20135 16.1221 8.13921C16.2501 8.07707 16.389 8.04071 16.5309 8.03217Z" fill="#693EDF"/>
</g>
</svg>
