<svg width="69" height="60" viewBox="0 0 69 60" fill="none" xmlns="http://www.w3.org/2000/svg">
<g id="Frame 192">
<g id="Group-6">
<path id="Path-3-Copy-12" d="M10.6061 0C12.6667 0 14.7273 0.606061 16.4242 1.75758L52.0606 26V33.6364L12.5455 7.63636C11.9394 7.27273 11.2727 7.0303 10.6061 7.0303C8.66667 7.0303 7.09091 8.60606 7.09091 10.5455V49.3333C7.09091 51.2727 8.66667 52.8485 10.6061 52.8485H12.4848V60H10.6061C4.72727 60 0 55.2727 0 49.3939V10.6061C0 4.72727 4.72727 0 10.6061 0Z" fill="#3C7DFF"/>
<path id="Path-3-Copy-13" d="M57.8178 60C55.7572 60 53.6966 59.3939 51.9996 58.2424L16.3633 34V26.3636L55.8784 52.303C56.4845 52.6667 57.1512 52.9091 57.8178 52.9091C59.7572 52.9091 61.333 51.3333 61.333 49.3939V10.6061C61.333 8.66667 59.7572 7.09091 57.8178 7.09091H55.939V0H57.8178C63.6966 0 68.4239 4.72727 68.4239 10.6061V49.3939C68.4239 55.2727 63.6966 60 57.8178 60Z" fill="#3C7DFF"/>
</g>
</g>
</svg>
