<svg width="78" height="78" viewBox="0 0 78 78" fill="none" xmlns="http://www.w3.org/2000/svg">
<g id="Group 48">
<rect id="Rectangle 67" width="78" height="78" rx="8" fill="#F6FAFB"/>
<g id="Group 1000007134">
<path id="Vector" d="M26.235 17.2652L17.265 26.2366C16.4528 27.0489 16 28.1416 16 29.2846V59.8434C16 61.0369 16.9631 62 18.1562 62H59.8438C61.0369 62 62 61.0369 62 59.8434V18.1566C62 16.9633 61.0369 16 59.8438 16H29.2897C28.1469 16 27.0472 16.4529 26.2422 17.2652H26.235Z" fill="url(#paint0_radial_335_1078)"/>
<path id="Vector_2" d="M48.5468 46.306H45.2166V32.9043H54.0939V36.0251H48.5468V38.4165H53.7748V41.4597H48.5468V46.3065V46.306Z" fill="white"/>
<path id="Vector_3" opacity="0.05" d="M44.3378 40.6823H47.6386C47.1503 44.0934 44.2827 46.3493 40.8086 46.3493C37.0042 46.3493 33.9067 43.4974 33.9067 39.6572C33.8987 38.7641 34.0718 37.8787 34.4155 37.0548C34.7592 36.2309 35.2663 35.4857 35.9059 34.8644C37.2188 33.589 38.9811 32.8861 40.8086 32.9087C44.2506 32.9087 47.1982 35.1821 47.6173 38.5385H44.3198C43.3284 34.7365 37.1503 35.1083 37.1503 39.6572C37.1503 44.2066 43.4058 44.5417 44.3378 40.6834V40.6823Z" fill="#002447"/>
<path id="Vector_4" d="M43.6627 40.6823C43.0964 42.6014 41.0808 43.7424 39.0969 43.2646C37.1118 42.7851 35.868 40.8606 36.28 38.9043C36.6916 36.9476 38.6112 35.6583 40.6279 35.9848C41.4541 36.097 42.2159 36.4931 42.7835 37.1055C43.1759 37.5107 43.4704 38.0008 43.6442 38.538H46.8453C46.4261 35.1739 43.4703 32.9088 40.0365 32.9088C38.2088 32.8855 36.446 33.5881 35.1327 34.8634C34.4926 35.4848 33.9853 36.2303 33.6415 37.0546C33.2977 37.879 33.1247 38.7648 33.1329 39.6583C33.1329 43.4986 36.2124 46.3493 40.0376 46.3493C43.509 46.3493 46.3684 44.0934 46.8654 40.6823H43.6622H43.6627Z" fill="white"/>
<path id="Vector_5" opacity="0.05" d="M33.7149 44.3569H29.0803L28.3227 46.3044H24.776L30.2037 32.8906H32.5691L38.2126 46.3087H34.4681L33.7137 44.3569H33.7149ZM30.3977 41.0365L30.2816 41.3394H32.5315L32.4536 41.112L31.406 38.2356L30.3977 41.0365Z" fill="#002447"/>
<path id="Vector_6" d="M32.8374 44.3569H28.2105L27.4534 46.3044H23.9062L29.3344 32.8906H31.6999L37.3433 46.3087H33.6005L32.8374 44.3569ZM29.5279 41.0365L29.4123 41.3394H31.6623L31.5838 41.112L30.5368 38.2356L29.5284 41.0365H29.5279Z" fill="white"/>
</g>
</g>
<defs>
<radialGradient id="paint0_radial_335_1078" cx="0" cy="0" r="1" gradientUnits="userSpaceOnUse" gradientTransform="translate(16 16) rotate(45) scale(65.0537)">
<stop stop-color="#0ECAD4"/>
<stop offset="1" stop-color="#006BD6"/>
</radialGradient>
</defs>
</svg>
