<svg width="48" height="48" viewBox="0 0 48 48" fill="none" xmlns="http://www.w3.org/2000/svg">
<g id="HTML5_logo_and_wordmark 1" clip-path="url(#clip0_359_1962)">
<path id="Vector" d="M10.1624 0H12.3187V2.1375H14.3062V0H16.4624V6.46875H14.3062V4.3125H12.3374V6.46875H10.1624M19.3124 2.15625H17.4093V0H23.3812V2.15625H21.4687V6.46875H19.3124M24.3281 0H26.5874L27.9749 2.27812L29.3624 0H31.6218V6.46875H29.4656V3.2625L27.9562 5.5875L26.4468 3.2625V6.46875H24.3281M32.6906 0H34.8468V4.33125H37.9031V6.46875H32.6906" fill="#171717"/>
<path id="Vector_2" d="M10.0874 44.1566L6.99369 9.43164H41.0062L37.9124 44.1379L23.9718 48.0004" fill="#E44D26"/>
<path id="Vector_3" d="M23.9999 45.0469V12.2812H37.9031L35.2499 41.9062" fill="#F16529"/>
<path id="Vector_4" d="M13.3124 16.5273H23.9999V20.7836H17.9812L18.3749 25.143H23.9999V29.3898H14.4749M14.6624 31.5273H18.9374L19.2374 34.9305L23.9999 36.2055V40.6492L15.2624 38.2117" fill="#EBEBEB"/>
<path id="Vector_5" d="M34.6499 16.5273H23.9812V20.7836H34.2562M33.8718 25.143H23.9812V29.3992H29.2312L28.7343 34.9305L23.9812 36.2055V40.6305L32.6999 38.2117" fill="white"/>
</g>
<defs>
<clipPath id="clip0_359_1962">
<rect width="48" height="48" fill="white"/>
</clipPath>
</defs>
</svg>
