<svg width="70" height="70" viewBox="0 0 70 70" fill="none" xmlns="http://www.w3.org/2000/svg">
<g id="hubspot-icon 1" clip-path="url(#clip0_152_2025)">
<path id="Vector" d="M64.2317 33.2509C62.6722 30.589 60.447 28.3786 57.7748 26.8368C55.7347 25.6512 53.6251 24.8981 51.2432 24.5724V16.0433C52.3983 15.5647 53.3833 14.7505 54.0707 13.706C54.7581 12.6616 55.1164 11.4349 55.0991 10.1846C55.1034 9.34033 54.9407 8.50351 54.6205 7.72225C54.3004 6.941 53.829 6.23072 53.2334 5.63221C52.6379 5.0337 51.93 4.55876 51.1503 4.23469C50.3707 3.91061 49.5347 3.74379 48.6904 3.7438C46.9802 3.74379 45.3397 4.42169 44.1284 5.62897C42.9171 6.83626 42.2338 8.47446 42.2282 10.1846C42.2282 12.8016 43.6167 15.034 46.004 16.0433V24.5243C44.0265 24.8105 42.1078 25.4127 40.3215 26.3081L17.4902 9.02037C17.6505 8.41688 17.7893 7.79202 17.7893 7.13512C17.7893 3.19371 14.5956 0 10.6542 0C6.71279 0 3.52441 3.19371 3.52441 7.13512C3.52441 11.0765 6.71813 14.2702 10.6595 14.2702C12.0054 14.2702 13.2498 13.875 14.3232 13.2288L15.8186 14.361L36.3 29.1279C35.2159 30.1213 34.2065 31.2535 33.4001 32.5246C31.7658 35.1148 30.7671 37.9614 30.7671 41.0697V41.7105C30.7743 43.8185 31.154 45.9085 31.8886 47.8843C32.5082 49.572 33.4161 51.1101 34.543 52.4987L27.739 59.3187C25.7255 58.571 23.4664 59.0677 21.9443 60.5898C20.9083 61.6205 20.3261 63.0251 20.3315 64.4884C20.3368 65.9518 20.9083 67.3457 21.9497 68.3871C22.9911 69.4285 24.385 70.0053 25.8484 70.0053C27.3117 70.0053 28.7163 69.4285 29.747 68.3871C30.7778 67.3457 31.3653 65.9518 31.3599 64.4884C31.3595 63.9267 31.2731 63.3684 31.1036 62.8328L38.1319 55.8045C39.0932 56.4721 40.1346 57.0329 41.2562 57.5135C43.5613 58.5246 46.0505 59.0482 48.5675 59.0517H49.0482C51.9962 59.0517 54.7787 58.3574 57.3903 56.9421C60.0747 55.5026 62.3301 53.378 63.9273 50.7843C65.5668 48.1674 66.4641 45.2674 66.4641 42.079V41.9188C66.4641 38.7839 65.7377 35.8946 64.221 33.2456L64.2317 33.2509ZM55.6492 48.0018C53.7426 50.1221 51.5476 51.4305 49.0695 51.4305H48.5996C47.1843 51.4305 45.7957 51.0407 44.4445 50.325C42.963 49.5546 41.7077 48.4116 40.8022 47.0085C39.8195 45.6199 39.2855 44.1032 39.2855 42.4956V42.015C39.2855 40.4341 39.5899 38.9334 40.3536 37.5181C41.1707 35.9159 42.2762 34.7677 43.7449 33.8117C45.2136 32.8557 46.725 32.3964 48.4447 32.3964H48.6049C50.1537 32.3964 51.6331 32.7008 53.0216 33.4112C54.4283 34.151 55.6231 35.2373 56.4931 36.5675C57.3543 37.9014 57.8869 39.4205 58.0472 41.0002L58.0846 41.9989C58.0846 44.1726 57.2514 46.186 55.5905 48.0125L55.6492 48.0018Z" fill="#F8761F"/>
</g>
<defs>
<clipPath id="clip0_152_2025">
<rect width="70" height="70" fill="white"/>
</clipPath>
</defs>
</svg>
