<svg width="30" height="30" viewBox="0 0 30 30" fill="none" xmlns="http://www.w3.org/2000/svg">
<g id="hugeicons:location-05">
<g id="Group">
<path id="Vector" d="M18.125 11.25C18.125 12.0788 17.7958 12.8737 17.2097 13.4597C16.6237 14.0458 15.8288 14.375 15 14.375C14.1712 14.375 13.3763 14.0458 12.7903 13.4597C12.2042 12.8737 11.875 12.0788 11.875 11.25C11.875 10.4212 12.2042 9.62634 12.7903 9.04029C13.3763 8.45424 14.1712 8.125 15 8.125C15.8288 8.125 16.6237 8.45424 17.2097 9.04029C17.7958 9.62634 18.125 10.4212 18.125 11.25Z" stroke="#693EDF" stroke-width="2" stroke-linecap="round" stroke-linejoin="round"/>
<path id="Vector_2" d="M22.5006 25C22.5006 26.3813 19.1431 27.5 15.0006 27.5C10.8581 27.5 7.5006 26.3813 7.5006 25M16.5718 21.8675C16.1496 22.2737 15.5865 22.5006 15.0006 22.5006C14.4147 22.5006 13.8516 22.2737 13.4294 21.8675C9.5681 18.1262 4.39435 13.9475 6.91685 7.88C8.2831 4.59875 11.5581 2.5 15.0006 2.5C18.4431 2.5 21.7193 4.6 23.0843 7.88C25.6043 13.9388 20.4431 18.1387 16.5718 21.8675Z" stroke="#693EDF" stroke-width="2" stroke-linecap="round" stroke-linejoin="round"/>
</g>
</g>
</svg>
