<svg width="42" height="42" viewBox="0 0 42 42" fill="none" xmlns="http://www.w3.org/2000/svg">
<g id="icons8-angularjs (1) 1">
<path id="Vector" d="M20.0896 2.0462L4.62486 7.42833C3.45849 7.83433 2.73224 8.99895 2.88186 10.2257L5.35636 30.5143C5.45874 31.357 5.96274 32.0972 6.70824 32.5032L19.702 39.5662C20.4869 39.9923 21.4345 39.9906 22.2176 39.5618L35.3006 32.3912C36.0417 31.9852 36.5422 31.2458 36.6446 30.4067L39.1174 10.1295C39.2679 8.8957 38.5329 7.72583 37.356 7.32595L21.7967 2.04008C21.2429 1.85195 20.6417 1.8537 20.0896 2.0462Z" fill="url(#paint0_linear_359_2084)"/>
<path id="Vector_2" d="M37.2926 10.622L34.9651 29.7495C34.8951 30.3095 34.5627 30.7995 34.0639 31.0708L21.8227 37.6245C21.5602 37.7645 21.2802 37.8258 21.0002 37.8258C20.9564 37.8258 20.9214 37.817 20.8777 37.817C20.6414 37.8083 20.4052 37.747 20.1777 37.6245L7.9364 31.1845C7.4464 30.9133 7.10515 30.4145 7.03515 29.8545L4.70765 10.7095C4.60265 9.89578 5.09265 9.11703 5.86265 8.84578L20.4052 3.70953C20.5627 3.65703 20.7202 3.62203 20.8777 3.62203C20.9214 3.61328 20.9564 3.61328 21.0002 3.61328C21.1927 3.61328 21.3852 3.64828 21.5777 3.70953C22.9602 4.20828 27.0026 5.66078 36.1201 8.74953C36.8989 9.02078 37.3976 9.79953 37.2926 10.622Z" fill="url(#paint1_linear_359_2084)"/>
<path id="Vector_3" d="M9.63693 29.7496H13.4948L21.0006 13.5656V5.24609L9.63693 29.7496Z" fill="white"/>
<path id="Vector_4" d="M15.7502 21H21.0002V24.5H15.7502V21Z" fill="white"/>
<path id="Vector_5" d="M37.2927 10.622L34.9652 29.7495C34.8952 30.3095 34.5627 30.7995 34.0639 31.0708L21.8227 37.6245C21.5602 37.7645 21.2802 37.8258 21.0002 37.8258V3.61328C21.1927 3.61328 21.3852 3.64828 21.5777 3.70953C22.9602 4.20828 27.0027 5.66078 36.1202 8.74953C36.8989 9.02078 37.3976 9.79953 37.2927 10.622Z" fill="#B31523"/>
<path id="Vector_6" d="M21.0002 5.25V13.5695L28.5059 29.7535H32.3638L21.0002 5.25Z" fill="#BFC8D1"/>
<path id="Vector_7" d="M21.0002 21.0039H26.2502V24.5039H21.0002V21.0039Z" fill="#BFC8D1"/>
<path id="Vector_8" opacity="0.05" d="M21.0002 5.24608V5.24958L32.3638 29.7531H28.5059L26.0708 24.5031H21.0002V24.4996H15.9295L13.4944 29.7496H9.63653L21.0002 5.24608ZM17.5527 20.9996H21.0002V21.0031H24.4477L21.0002 13.5691V13.5656L17.5527 20.9996ZM21.8752 1.2832L20.2065 4.8777L8.8429 29.3812L8.26628 30.6246H9.63653H13.4944H14.0535L14.2889 30.118L16.4878 25.3746H20.1252L21.0002 25.3781H25.5125L27.7123 30.1215L27.9477 30.6281H28.5068H32.3647H33.7349L33.1583 29.3847L21.8752 5.0562V1.2832ZM18.9229 20.1246L20.9993 15.6472L23.0774 20.1281H21.8752L21.0002 20.1246H18.9229Z" fill="#171717"/>
<path id="Vector_9" opacity="0.07" d="M21.0004 5.24575V5.24925L32.364 29.7528H28.5062L26.071 24.5027H21.0004V24.4992H15.9298L13.4947 29.7492H9.63678L21.0004 5.24575ZM17.5529 20.9992H21.0004V21.0027H24.4479L21.0004 13.5687V13.5652L17.5529 20.9992ZM21.4379 3.26562L20.6032 5.06112L9.23953 29.5655L8.95166 30.1867H9.63678H13.4947H13.7738L13.891 29.933L16.208 24.9367H20.5629L21.0004 24.9402H25.7919L28.1089 29.9365L28.2262 30.1903H28.5053H32.3632H33.0483L32.7604 29.569L21.4379 5.153V3.26562ZM18.238 20.5617L20.9995 14.6065L23.7628 20.5652H21.4379L21.0004 20.5617H18.238Z" fill="#171717"/>
</g>
<defs>
<linearGradient id="paint0_linear_359_2084" x1="16.9484" y1="5.47358" x2="28.8011" y2="38.0376" gradientUnits="userSpaceOnUse">
<stop stop-color="#DFE9F2"/>
<stop offset="0.391" stop-color="#D6E0E9"/>
<stop offset="1" stop-color="#BFC8D1"/>
</linearGradient>
<linearGradient id="paint1_linear_359_2084" x1="21.0001" y1="1.88253" x2="21.0001" y2="34.9619" gradientUnits="userSpaceOnUse">
<stop stop-color="#F44F5A"/>
<stop offset="0.443" stop-color="#EE3D4A"/>
<stop offset="1" stop-color="#E52030"/>
</linearGradient>
</defs>
</svg>
