<svg width="46" height="46" viewBox="0 0 46 46" fill="none" xmlns="http://www.w3.org/2000/svg">
<g id="logo-divi 1" clip-path="url(#clip0_344_905)">
<path id="Vector" d="M23 3.28571C33.8757 3.28571 42.7143 12.1243 42.7143 23C42.7143 33.8757 33.8757 42.7143 23 42.7143C12.1243 42.7143 3.28571 33.8757 3.28571 23C3.28571 12.1243 12.1243 3.28571 23 3.28571ZM23 0C10.3007 0 0 10.3007 0 23C0 35.6993 10.3007 46 23 46C35.6993 46 46 35.6993 46 23C46 10.3007 35.6993 0 23 0Z" fill="#8F42EC"/>
<path id="Vector_2" d="M29.44 28.7336C30.0479 28.0107 30.5079 27.1564 30.82 26.1871C31.1321 25.2014 31.5429 21.85 30.8036 19.6486C30.475 18.6793 30.015 17.825 29.4071 17.1186C28.7993 16.4121 28.06 15.87 27.1729 15.4757C26.2857 15.0814 25.2343 14.7857 24.0679 14.7857H18.0714V31.2143H24.0679C25.2507 31.2143 26.3021 30.82 27.2057 30.4093C28.0929 30.015 28.8486 29.44 29.44 28.7336ZM28.29 12.3871C29.6207 12.9457 30.7707 13.7507 31.7071 14.7693C32.6271 15.7879 33.3336 17.0036 33.81 18.3836C34.27 19.7636 34.5 21.3736 34.5 23C34.5 24.5936 34.2864 26.0064 33.8264 27.3864C33.3664 28.7664 32.6764 29.9986 31.7564 31.0171C30.8364 32.0521 29.7029 32.8736 28.3393 33.465C27.0086 34.04 25.4479 34.5 23.7064 34.5H16.4286C15.525 34.5 14.7857 33.7607 14.7857 32.8571V13.1429C14.7857 12.2393 15.525 11.5 16.4286 11.5H23.7064C25.415 11.5 26.9593 11.8286 28.29 12.3871Z" fill="#8F42EC"/>
</g>
<defs>
<clipPath id="clip0_344_905">
<rect width="46" height="46" fill="white"/>
</clipPath>
</defs>
</svg>
