<svg width="127" height="39" viewBox="0 0 127 39" fill="none" xmlns="http://www.w3.org/2000/svg">
<g id="Group 5">
<path id="Subtract" fill-rule="evenodd" clip-rule="evenodd" d="M101.478 36.0508C104.593 37.6836 108.078 38.5 111.934 38.5C114.901 38.5 117.545 38.0052 119.869 37.0156C122.242 36.026 124.442 34.5417 126.469 32.5625L118.238 24.3984C117.496 25.2396 116.631 25.8828 115.642 26.3281C114.653 26.7734 113.467 26.9961 112.083 26.9961C110.698 26.9961 109.438 26.6745 108.301 26.0313C107.213 25.388 106.323 24.5221 105.631 23.4336C104.988 22.2956 104.667 20.9844 104.667 19.5C104.667 17.9661 104.988 16.6549 105.631 15.5664C106.323 14.4779 107.213 13.6367 108.301 13.043C109.438 12.3997 110.698 12.0781 112.083 12.0781C113.368 12.0781 114.48 12.276 115.42 12.6719C116.408 13.0182 117.274 13.5625 118.015 14.3047L126.172 6.14063C124.244 4.26042 122.118 2.85026 119.795 1.91016C117.471 0.970055 114.901 0.5 112.083 0.5C108.177 0.5 104.667 1.34115 101.552 3.02344C98.4874 4.65625 96.0402 6.90755 94.211 9.77735C92.4313 12.6471 91.5414 15.9128 91.5414 19.5742C91.5414 23.1862 92.4313 26.4271 94.211 29.2969C95.9908 32.1667 98.4132 34.418 101.478 36.0508ZM67.8217 5.77051V1.39113H80.7248V3.70178C83.0879 1.66658 86.153 0.648945 89.9201 0.648945C91.6504 0.648945 93.1336 0.871602 94.3695 1.31691C95.6548 1.76223 96.7425 2.45493 97.6323 3.39504L90.1426 13.4146C89.7471 12.9692 89.1786 12.6229 88.437 12.3755C87.7449 12.0786 86.9539 11.9302 86.064 11.9302C84.3832 11.9302 83.0731 12.4497 82.1338 13.4888C81.1945 14.4784 80.7248 15.9627 80.7248 17.9419V37.6841H67.8217V33.3028C69.1219 32.1112 70.2328 30.7511 71.1544 29.2227C72.9341 26.3034 73.824 23.0378 73.824 19.4258C73.824 15.8138 72.9341 12.5977 71.1544 9.77735C70.2204 8.27143 69.1095 6.93581 67.8217 5.77051ZM39.3768 33.3053V37.6841H26.6961V35.2415C25.7929 35.9983 24.7547 36.6393 23.5816 37.1646C21.703 38.0057 19.6266 38.4263 17.3525 38.4263C13.9907 38.4263 10.9998 37.6099 8.37961 35.9771C5.75944 34.3443 3.70779 32.1177 2.22468 29.2974C0.741559 26.4276 0 23.1867 0 19.5747C0 15.9133 0.741559 12.6476 2.22468 9.77785C3.70779 6.90806 5.75944 4.6815 8.37961 3.09816C10.9998 1.46535 13.9907 0.648945 17.3525 0.648945C19.6266 0.648945 21.703 1.06952 23.5816 1.91066C24.7547 2.40503 25.7929 3.03447 26.6961 3.79896V1.39113H39.3768V5.66839C38.0404 6.85759 36.8916 8.22725 35.9303 9.77735C34.2 12.5977 33.3348 15.8138 33.3348 19.4258C33.3348 23.0378 34.2247 26.3034 36.0045 29.2227C36.953 30.7522 38.0771 32.1131 39.3768 33.3053ZM27.5071 14.1284C25.827 11.7646 23.0677 10.2227 19.9486 10.2227C14.8292 10.2227 10.6791 14.3763 10.6791 19.5001C10.6791 24.6238 14.8292 28.7774 19.9486 28.7774C22.9274 28.7774 25.5781 27.3711 27.2739 25.1856C28.4925 23.6152 29.2181 21.6424 29.2181 19.5001C29.2181 17.4981 28.5845 15.6442 27.5071 14.1284Z" fill="#171717"/>
<path id="Ellipse 3" d="M62.9619 19.5C62.9619 24.6237 58.8119 28.7773 53.6925 28.7773C48.5731 28.7773 44.423 24.6237 44.423 19.5C44.423 14.3763 48.5731 10.2227 53.6925 10.2227C58.8119 10.2227 62.9619 14.3763 62.9619 19.5Z" fill="#693EDF"/>
</g>
</svg>
