<svg width="51" height="47" viewBox="0 0 51 47" fill="none" xmlns="http://www.w3.org/2000/svg">
<path d="M11.6049 2.24481L25.7626 0.748047L39.9203 2.24481L50.8811 16.9587L25.7626 46.2089L0.644089 16.9587L11.6049 2.24481Z" fill="#FDB300"/>
<path d="M10.8184 16.959L25.7626 46.2092L0.644127 16.959H10.8184Z" fill="#EA6C00"/>
<path d="M40.7064 16.959L25.7622 46.2092L50.8807 16.959H40.7064Z" fill="#EA6C00"/>
<path d="M10.8183 16.959H40.7069L25.7626 46.2092L10.8183 16.959Z" fill="#FDAD00"/>
<path d="M25.7626 0.748047L11.6049 2.24479L10.8183 16.9587L25.7626 0.748047Z" fill="#FDD231"/>
<path d="M25.7622 0.748047L39.9199 2.24479L40.7064 16.9587L25.7622 0.748047Z" fill="#FDD231"/>
<path d="M50.8811 16.958L39.9203 2.24414L40.7069 16.958H50.8811ZM0.644127 16.958L11.6049 2.24414L10.8184 16.958H0.644127Z" fill="#FDAD00"/>
<path d="M25.7626 0.748047L10.8183 16.9587H40.7069L25.7626 0.748047Z" fill="#FEEEB7"/>
</svg>
