<svg width="42" height="42" viewBox="0 0 42 42" fill="none" xmlns="http://www.w3.org/2000/svg">
<g id="nodejs-3 1">
<g id="Group">
<g id="Clip path group">
<mask id="mask0_359_1988" style="mask-type:luminance" maskUnits="userSpaceOnUse" x="3" y="0" width="36" height="41">
<g id="a">
<path id="Vector" d="M19.8317 1.23845L4.20738 10.2568C3.9203 10.4222 3.68188 10.6603 3.5161 10.9472C3.35033 11.2341 3.26306 11.5595 3.26308 11.8909V29.9397C3.263 30.2711 3.35024 30.5966 3.51602 30.8835C3.68181 31.1703 3.92027 31.4085 4.20738 31.5738L19.8328 40.5991C20.1199 40.7643 20.4453 40.8513 20.7765 40.8513C21.1078 40.8513 21.4332 40.7643 21.7203 40.5991L37.3432 31.5738C37.6296 31.4079 37.8674 31.1695 38.0327 30.8828C38.198 30.596 38.2851 30.2708 38.2852 29.9397V11.8909C38.2852 11.5594 38.1977 11.2338 38.0317 10.9469C37.8657 10.66 37.6269 10.422 37.3395 10.2568L21.7189 1.23845C21.4311 1.07326 21.105 0.986328 20.7732 0.986328C20.4413 0.986328 20.1153 1.07326 19.8275 1.23845" fill="white"/>
</g>
</mask>
<g mask="url(#mask0_359_1988)">
<g id="Group_2">
<path id="Vector_2" d="M54.0742 8.72502L10.0476 -12.8555L-12.5267 33.1957L31.4988 54.7773L54.0742 8.72502Z" fill="url(#paint0_linear_359_1988)"/>
</g>
</g>
</g>
</g>
<g id="Group_3">
<g id="Clip path group_2">
<mask id="mask1_359_1988" style="mask-type:luminance" maskUnits="userSpaceOnUse" x="3" y="1" width="35" height="40">
<g id="b">
<path id="Vector_3" d="M3.65026 31.0849C3.8016 31.2828 3.99068 31.4487 4.20655 31.5731L17.6093 39.3147L19.8419 40.5981C20.1717 40.7876 20.5508 40.8735 20.9301 40.8445C21.0556 40.834 21.1798 40.8113 21.3008 40.7766L37.7798 10.6034C37.6517 10.4659 37.5037 10.3484 37.3407 10.2549L27.1102 4.34705L21.7022 1.23544C21.5485 1.14837 21.3839 1.08232 21.2127 1.03906L3.65026 31.0849Z" fill="white"/>
</g>
</mask>
<g mask="url(#mask1_359_1988)">
<g id="Group_4">
<path id="Vector_4" d="M-15.3852 15.107L15.702 57.1821L56.8156 26.8064L25.7264 -15.2676L-15.3852 15.107Z" fill="url(#paint1_linear_359_1988)"/>
</g>
</g>
</g>
</g>
<g id="Group_5">
<g id="Clip path group_3">
<mask id="mask2_359_1988" style="mask-type:luminance" maskUnits="userSpaceOnUse" x="4" y="0" width="35" height="41">
<g id="c">
<path id="Vector_5" d="M20.5865 0.997186C20.3209 1.02404 20.0638 1.10639 19.8319 1.2389L4.25217 10.2313L21.0522 40.831C21.2858 40.7976 21.5156 40.7197 21.7233 40.5996L37.3476 31.5743C37.5835 31.4378 37.7872 31.2519 37.9447 31.0294C38.1021 30.8069 38.2097 30.553 38.2599 30.2851L21.1337 1.02807C21.0079 1.00292 20.88 0.990241 20.7518 0.990234C20.6998 0.990234 20.6477 0.992738 20.596 0.997466" fill="white"/>
</g>
</mask>
<g mask="url(#mask2_359_1988)">
<g id="Group_6">
<path id="Vector_6" d="M4.25189 0.990234H38.2535V40.8318H4.25189V0.990234Z" fill="url(#paint2_linear_359_1988)"/>
</g>
</g>
</g>
</g>
</g>
<defs>
<linearGradient id="paint0_linear_359_1988" x1="-5399.36" y1="-2664.55" x2="-5421.93" y2="-2618.51" gradientUnits="userSpaceOnUse">
<stop stop-color="#3E863D"/>
<stop offset="0.3" stop-color="#3E863D"/>
<stop offset="0.5" stop-color="#55934F"/>
<stop offset="0.8" stop-color="#5AAD45"/>
<stop offset="1" stop-color="#5AAD45"/>
</linearGradient>
<linearGradient id="paint1_linear_359_1988" x1="5329.95" y1="7249.4" x2="5371.06" y2="7219.02" gradientUnits="userSpaceOnUse">
<stop stop-color="#3E863D"/>
<stop offset="0.57" stop-color="#3E863D"/>
<stop offset="0.72" stop-color="#619857"/>
<stop offset="1" stop-color="#76AC64"/>
</linearGradient>
<linearGradient id="paint2_linear_359_1988" x1="4.28221" y1="8183.47" x2="38.2788" y2="8183.47" gradientUnits="userSpaceOnUse">
<stop stop-color="#6BBF47"/>
<stop offset="0.16" stop-color="#6BBF47"/>
<stop offset="0.38" stop-color="#79B461"/>
<stop offset="0.47" stop-color="#75AC64"/>
<stop offset="0.7" stop-color="#659E5A"/>
<stop offset="0.9" stop-color="#3E863D"/>
<stop offset="1" stop-color="#3E863D"/>
</linearGradient>
</defs>
</svg>
