<svg width="47" height="47" viewBox="0 0 47 47" fill="none" xmlns="http://www.w3.org/2000/svg">
<g id="photoshop 1" clip-path="url(#clip0_335_1667)">
<g id="Layer 2">
<g id="Surfaces">
<g id="Photo Surface">
<g id="Outline no shadow">
<path id="Vector" d="M38.644 0.748047H8.53079C3.97066 0.748047 0.273945 4.44476 0.273945 9.00489V37.9524C0.273945 42.5125 3.97066 46.2092 8.53079 46.2092H38.644C43.2041 46.2092 46.9008 42.5125 46.9008 37.9524V9.00489C46.9008 4.44476 43.2041 0.748047 38.644 0.748047Z" fill="#001E36"/>
</g>
</g>
</g>
<g id="Outlined Mnemonics &#38; Logos">
<g id="Ps">
<path id="Vector_2" d="M10.772 32.6281V12.6409C10.772 12.4953 10.8347 12.422 10.9598 12.422C11.293 12.422 11.5973 12.4171 12.0563 12.4063C12.5147 12.3961 13.01 12.3857 13.542 12.3751C14.0738 12.3648 14.6369 12.3544 15.2311 12.3438C15.8253 12.3335 16.4144 12.3283 16.9983 12.3281C18.5828 12.3281 19.9174 12.5262 21.002 12.9224C21.9804 13.2534 22.8727 13.7983 23.6139 14.5176C24.2421 15.1411 24.7277 15.8935 25.037 16.7228C25.3296 17.5299 25.4779 18.3823 25.475 19.2408C25.475 20.9093 25.0892 22.2856 24.3176 23.3696C23.541 24.458 22.4493 25.2823 21.1897 25.7311C19.876 26.2213 18.4161 26.3876 16.8107 26.3876C16.3518 26.3876 16.0285 26.3824 15.841 26.3719C15.6534 26.3616 15.3719 26.3564 14.9965 26.3563V32.5969C15.002 32.6351 14.9985 32.6741 14.9863 32.7107C14.974 32.7474 14.9535 32.7807 14.9261 32.808C14.8988 32.8353 14.8655 32.8559 14.8289 32.8681C14.7922 32.8803 14.7532 32.8838 14.715 32.8784H10.991C10.8449 32.8784 10.772 32.7953 10.772 32.6281ZM14.9965 16.1754V22.6944C15.2673 22.7155 15.5175 22.7259 15.7472 22.7257H16.7794C17.5389 22.7232 18.2933 22.6027 19.0159 22.3687C19.6355 22.1846 20.1893 21.8263 20.6111 21.3365C21.0177 20.857 21.221 20.1898 21.221 19.3346C21.2375 18.7296 21.0801 18.1325 20.7674 17.6143C20.4387 17.1131 19.9636 16.7254 19.4068 16.5039C18.6797 16.2213 17.9031 16.0883 17.1234 16.1129C16.623 16.1129 16.1798 16.1181 15.7941 16.1285C15.408 16.1393 15.1422 16.1549 14.9965 16.1754V16.1754Z" fill="#31A8FF"/>
<path id="Vector_3" d="M37.5687 21.5085C36.9809 21.2064 36.3548 20.9854 35.7076 20.8516C34.9945 20.688 34.2654 20.604 33.5337 20.6013C33.138 20.5906 32.7427 20.638 32.3608 20.7421C32.1176 20.7963 31.9015 20.9348 31.7508 21.1331C31.6488 21.2917 31.5946 21.4763 31.5944 21.6648C31.6002 21.8478 31.6661 22.0237 31.7821 22.1653C31.9648 22.379 32.188 22.5544 32.4389 22.6814C32.8849 22.9216 33.3444 23.1357 33.8152 23.3226C34.865 23.674 35.8681 24.1519 36.8023 24.7458C37.4388 25.1475 37.9654 25.701 38.335 26.3567C38.6458 26.9775 38.8014 27.6644 38.7886 28.3585C38.8073 29.2751 38.5454 30.1755 38.0379 30.939C37.4946 31.7141 36.74 32.3166 35.8639 32.675C34.9148 33.0919 33.7419 33.3004 32.3451 33.3006C31.4578 33.3096 30.5719 33.2257 29.702 33.0503C29.0167 32.9247 28.3495 32.7145 27.7158 32.4248C27.6474 32.3895 27.5905 32.3354 27.5517 32.2689C27.513 32.2024 27.4939 32.1263 27.4969 32.0494V28.6713C27.4931 28.6382 27.4984 28.6047 27.5122 28.5744C27.526 28.5441 27.5477 28.5182 27.5751 28.4993C27.602 28.4841 27.6328 28.4774 27.6636 28.4802C27.6943 28.483 27.7234 28.4951 27.7471 28.5149C28.4955 28.9562 29.308 29.278 30.1556 29.4689C30.9026 29.6561 31.6689 29.7559 32.4389 29.7661C33.1686 29.7661 33.7056 29.6722 34.0498 29.4845C34.2052 29.4134 34.3367 29.2987 34.4283 29.1544C34.5199 29.01 34.5677 28.8422 34.5659 28.6713C34.5659 28.4006 34.4095 28.1399 34.0967 27.8893C33.784 27.6391 33.148 27.3367 32.1887 26.9822C31.2065 26.6404 30.2753 26.1669 29.4205 25.5747C28.8091 25.1495 28.3056 24.5871 27.9504 23.9325C27.6428 23.3162 27.4873 22.6351 27.4969 21.9463C27.4951 21.1187 27.7225 20.3068 28.1537 19.6004C28.6454 18.8226 29.3515 18.2034 30.1869 17.8175C31.1042 17.3591 32.2511 17.1297 33.6276 17.1294C34.4337 17.1229 35.239 17.1804 36.036 17.3014C36.6132 17.3746 37.1774 17.5273 37.7128 17.755C37.7553 17.7672 37.7943 17.789 37.8269 17.8189C37.8594 17.8487 37.8846 17.8858 37.9004 17.927C37.9216 18.0034 37.9321 18.0823 37.9317 18.1616V21.3208C37.9339 21.3575 37.9264 21.3942 37.9099 21.4271C37.8934 21.4601 37.8686 21.4881 37.8379 21.5084C37.7961 21.5292 37.75 21.5401 37.7033 21.5401C37.6566 21.5401 37.6105 21.5293 37.5687 21.5085Z" fill="#31A8FF"/>
</g>
</g>
</g>
</g>
<defs>
<clipPath id="clip0_335_1667">
<rect width="46.6269" height="45.4612" fill="white" transform="translate(0.273945 0.748047)"/>
</clipPath>
</defs>
</svg>
