<svg width="70" height="70" viewBox="0 0 70 70" fill="none" xmlns="http://www.w3.org/2000/svg">
<g id="Python-logo-notext 1" clip-path="url(#clip0_152_1830)">
<path id="path1948" d="M34.2559 0.000573402C31.3968 0.0138581 28.6665 0.257697 26.264 0.682806C19.1868 1.93313 17.9018 4.55016 17.9018 9.3764V15.7504H34.6263V17.8751H17.9018H11.6253C6.76468 17.8751 2.50861 20.7966 1.17736 26.3543C-0.358213 32.7246 -0.426324 36.6999 1.17736 43.3516C2.36619 48.3029 5.20529 51.8308 10.0659 51.8308H15.8161V44.1898C15.8161 38.6696 20.5923 33.8003 26.264 33.8003H42.969C47.6191 33.8003 51.3312 29.9716 51.3312 25.3017V9.3764C51.3312 4.84398 47.5076 1.43925 42.969 0.682806C40.096 0.204557 37.115 -0.0127115 34.2559 0.000573402ZM25.2114 5.12707C26.939 5.12707 28.3497 6.56086 28.3497 8.32381C28.3497 10.0805 26.939 11.5011 25.2114 11.5011C23.4777 11.5011 22.0732 10.0805 22.0732 8.32381C22.0732 6.56086 23.4777 5.12707 25.2114 5.12707Z" fill="url(#paint0_linear_152_1830)"/>
<path id="path1950" d="M53.4165 17.875V25.3016C53.4165 31.0593 48.535 35.9054 42.9686 35.9054H26.2636C21.6878 35.9054 17.9014 39.8217 17.9014 44.4041V60.3294C17.9014 64.8618 21.8426 67.5277 26.2636 68.828C31.5576 70.3847 36.6343 70.666 42.9686 68.828C47.179 67.609 51.3308 65.1556 51.3308 60.3294V53.9554H34.6258V51.8307H51.3308H59.693C64.5536 51.8307 66.3649 48.4403 68.0552 43.3515C69.8013 38.1127 69.727 33.0747 68.0552 26.3542C66.854 21.5154 64.5598 17.875 59.693 17.875H53.4165ZM44.0211 58.2047C45.7549 58.2047 47.1594 59.6253 47.1594 61.382C47.1594 63.1449 45.7549 64.5787 44.0211 64.5787C42.2936 64.5787 40.8829 63.1449 40.8829 61.382C40.8829 59.6253 42.2936 58.2047 44.0211 58.2047Z" fill="url(#paint1_linear_152_1830)"/>
</g>
<defs>
<linearGradient id="paint0_linear_152_1830" x1="-2.08262e-07" y1="-1.80912e-07" x2="38.5647" y2="32.8625" gradientUnits="userSpaceOnUse">
<stop stop-color="#5A9FD4"/>
<stop offset="1" stop-color="#306998"/>
</linearGradient>
<linearGradient id="paint1_linear_152_1830" x1="43.6192" y1="60.8461" x2="29.7837" y2="41.4583" gradientUnits="userSpaceOnUse">
<stop stop-color="#FFD43B"/>
<stop offset="1" stop-color="#FFE873"/>
</linearGradient>
<clipPath id="clip0_152_1830">
<rect width="70" height="70" fill="white"/>
</clipPath>
</defs>
</svg>
