<svg width="40" height="48" viewBox="0 0 40 48" fill="none" xmlns="http://www.w3.org/2000/svg">
<g id="Python-logo-notext 2" clip-path="url(#clip0_359_2015)">
<path id="path1948" d="M19.5749 0.000327659C17.9411 0.00791894 16.3809 0.147255 15.0081 0.390175C10.964 1.10464 10.2297 2.60009 10.2297 5.35794V9.00023H19.7865V10.2143H10.2297H6.6431C3.86562 10.2143 1.43358 11.8838 0.672869 15.0596C-0.204602 18.6998 -0.243522 20.9714 0.672869 24.7723C1.3522 27.6016 2.97454 29.6176 5.75202 29.6176H9.03788V25.2513C9.03788 22.0969 11.7671 19.3145 15.0081 19.3145H24.5538C27.211 19.3145 29.3322 17.1266 29.3322 14.4581V5.35794C29.3322 2.76799 27.1473 0.822428 24.5538 0.390175C22.9121 0.11689 21.2087 -0.00726374 19.5749 0.000327659ZM14.4066 2.92975C15.3938 2.92975 16.1999 3.74906 16.1999 4.75646C16.1999 5.7603 15.3938 6.57204 14.4066 6.57204C13.4159 6.57204 12.6133 5.7603 12.6133 4.75646C12.6133 3.74906 13.4159 2.92975 14.4066 2.92975Z" fill="url(#paint0_linear_359_2015)"/>
<path id="path1950" d="M30.5239 10.2148V14.4586C30.5239 17.7487 27.7345 20.518 24.5537 20.518H15.008C12.3933 20.518 10.2296 22.7558 10.2296 25.3743V34.4745C10.2296 37.0644 12.4817 38.5878 15.008 39.3309C18.0332 40.2204 20.9341 40.3811 24.5537 39.3309C26.9597 38.6343 29.3321 37.2323 29.3321 34.4745V30.8322H19.7864V29.6181H29.3321H34.1105C36.888 29.6181 37.923 27.6807 38.8889 24.7729C39.8867 21.7792 39.8442 18.9004 38.8889 15.0601C38.2025 12.2951 36.8915 10.2148 34.1105 10.2148H30.5239ZM25.1552 33.2604C26.1459 33.2604 26.9485 34.0721 26.9485 35.076C26.9485 36.0834 26.1459 36.9027 25.1552 36.9027C24.168 36.9027 23.3619 36.0834 23.3619 35.076C23.3619 34.0721 24.168 33.2604 25.1552 33.2604Z" fill="url(#paint1_linear_359_2015)"/>
<path id="path1894" opacity="0.44382" d="M19.895 47.9999C26.968 47.9999 32.7019 46.8881 32.7019 45.5166C32.7019 44.145 26.968 43.0332 19.895 43.0332C12.8219 43.0332 7.08801 44.145 7.08801 45.5166C7.08801 46.8881 12.8219 47.9999 19.895 47.9999Z" fill="url(#paint2_radial_359_2015)"/>
</g>
<defs>
<linearGradient id="paint0_linear_359_2015" x1="9.14337e-05" y1="-1.03378e-07" x2="22.0371" y2="18.7786" gradientUnits="userSpaceOnUse">
<stop stop-color="#5A9FD4"/>
<stop offset="1" stop-color="#306998"/>
</linearGradient>
<linearGradient id="paint1_linear_359_2015" x1="24.9255" y1="34.7697" x2="17.0195" y2="23.691" gradientUnits="userSpaceOnUse">
<stop stop-color="#FFD43B"/>
<stop offset="1" stop-color="#FFE873"/>
</linearGradient>
<radialGradient id="paint2_radial_359_2015" cx="0" cy="0" r="1" gradientUnits="userSpaceOnUse" gradientTransform="translate(19.895 45.5166) rotate(-90) scale(2.48338 10.9155)">
<stop stop-color="#B8B8B8" stop-opacity="0.498039"/>
<stop offset="1" stop-color="#7F7F7F" stop-opacity="0"/>
</radialGradient>
<clipPath id="clip0_359_2015">
<rect width="40" height="48" fill="white"/>
</clipPath>
</defs>
</svg>
