<svg width="101" height="70" viewBox="0 0 101 70" fill="none" xmlns="http://www.w3.org/2000/svg">
<g id="Salesforce.com_logo 1">
<g id="Group">
<g id="Mask group">
<mask id="mask0_152_2015" style="mask-type:luminance" maskUnits="userSpaceOnUse" x="0" y="0" width="100" height="70">
<g id="Group_2">
<path id="Vector" d="M0.0224609 0.183594H99.7083V69.8171H0.0224609V0.183594Z" fill="white"/>
</g>
</mask>
<g mask="url(#mask0_152_2015)">
<path id="Vector_2" fill-rule="evenodd" clip-rule="evenodd" d="M41.4137 7.8071C44.6315 4.45737 49.11 2.38302 54.0577 2.38302C60.6545 2.38302 66.3718 6.04794 69.4503 11.5087C72.183 10.2871 75.1429 9.65637 78.1362 9.65789C90.0105 9.65789 99.6493 19.3699 99.6493 31.3542C99.6493 43.3385 90.0105 53.0506 78.1362 53.0506C76.6849 53.0506 75.2702 52.9047 73.8849 52.6291C71.1912 57.4301 66.0419 60.6919 60.1781 60.6919C57.7907 60.6966 55.4339 60.1551 53.288 59.1087C50.5577 65.5223 44.199 70.0301 36.7959 70.0301C29.0629 70.0301 22.5027 65.1558 19.9739 58.3024C18.8484 58.5399 17.7012 58.6593 16.5509 58.6586C7.3519 58.6586 -0.0878906 51.1089 -0.0878906 41.8366C-0.0878906 35.6063 3.26185 30.1822 8.23148 27.2502C7.17717 24.8215 6.63448 22.2016 6.63724 19.5539C6.63724 8.85234 15.3231 0.203125 26.0247 0.203125C32.2917 0.203125 37.899 3.19004 41.4173 7.82616" fill="#00A1E0"/>
</g>
</g>
<path id="Vector_3" fill-rule="evenodd" clip-rule="evenodd" d="M14.4406 36.3927C14.378 36.5562 14.463 36.5903 14.4831 36.6192C14.6704 36.7548 14.8606 36.853 15.0512 36.9634C16.0701 37.5021 17.0303 37.6597 18.0345 37.6597C20.0795 37.6597 21.3512 36.5712 21.3512 34.8194V34.7849C21.3512 33.165 19.9146 32.575 18.5732 32.1535L18.3977 32.0967C17.3825 31.7676 16.5066 31.481 16.5066 30.814V30.7799C16.5066 30.2082 17.0196 29.7867 17.8113 29.7867C18.6908 29.7867 19.739 30.0795 20.4097 30.4501C20.4097 30.4501 20.6083 30.5783 20.6805 30.3867C20.7197 30.2829 21.0617 29.3678 21.0983 29.2652C21.1372 29.1578 21.069 29.0768 20.999 29.035C20.2294 28.5659 19.1666 28.2471 18.0671 28.2471L17.8629 28.2478C15.9902 28.2478 14.6818 29.3803 14.6818 31.0002V31.035C14.6818 32.7428 16.1258 33.2999 17.4745 33.6847L17.6914 33.7522C18.6736 34.0541 19.5239 34.3165 19.5239 35.0056V35.04C19.5239 35.674 18.9705 36.1468 18.0836 36.1468C17.7387 36.1468 16.6396 36.1409 15.4485 35.3882C15.3045 35.3042 15.2224 35.2438 15.1113 35.176C15.0527 35.1404 14.9061 35.0763 14.8423 35.2683L14.4392 36.3898M44.3816 36.3898C44.3189 36.5533 44.4039 36.5873 44.4248 36.6163C44.6114 36.7519 44.8023 36.8501 44.9929 36.9604C46.0117 37.4992 46.9719 37.6568 47.9761 37.6568C50.0212 37.6568 51.2929 36.5683 51.2929 34.8164V34.782C51.2929 33.1621 49.8599 32.572 48.5149 32.1506L48.3393 32.0938C47.3241 31.7647 46.4482 31.4781 46.4482 30.8111V30.777C46.4482 30.2052 46.9613 29.7838 47.7529 29.7838C48.6325 29.7838 49.677 30.0766 50.3514 30.4471C50.3514 30.4471 50.55 30.5754 50.6226 30.3837C50.6614 30.28 51.0037 29.3649 51.0367 29.2623C51.0759 29.1549 51.0074 29.0739 50.9378 29.0321C50.1681 28.563 49.1053 28.2441 48.0058 28.2441L47.8013 28.2449C45.9285 28.2449 44.6202 29.3773 44.6202 30.9972V31.032C44.6202 32.7399 46.0641 33.297 47.4128 33.6818L47.6294 33.7492C48.6153 34.0512 49.4619 34.3136 49.4619 35.0026V35.0371C49.4619 35.6711 48.9085 36.1439 48.0216 36.1439C47.676 36.1439 46.5739 36.138 45.3865 35.3852C45.2425 35.3013 45.1582 35.2434 45.049 35.173C45.0119 35.1496 44.8393 35.0821 44.7803 35.2654L44.3772 36.3869M64.8274 32.9565C64.8274 33.946 64.6427 34.7267 64.2814 35.2801C63.9207 35.8261 63.3761 36.0937 62.6175 36.0937C61.8589 36.0937 61.3164 35.8283 60.9609 35.2837C60.6029 34.734 60.4222 33.9497 60.4222 32.9602C60.4222 31.9706 60.604 31.1937 60.9609 30.6476C61.3157 30.1052 61.8552 29.845 62.6175 29.845C63.3798 29.845 63.9222 30.1078 64.2814 30.6476C64.6449 31.1937 64.8274 31.9706 64.8274 32.9602M66.5353 31.124C66.3671 30.556 66.1065 30.0575 65.7583 29.6397C65.4098 29.2219 64.9704 28.8848 64.4463 28.6429C63.9259 28.3992 63.3102 28.2764 62.6138 28.2764C61.9175 28.2764 61.3055 28.3999 60.7814 28.6429C60.2609 28.8862 59.8175 29.2219 59.4693 29.6397C59.1219 30.0575 58.8609 30.556 58.6924 31.124C58.5256 31.6884 58.4409 32.3041 58.4409 32.9602C58.4409 33.6162 58.5256 34.2319 58.6924 34.7963C58.8598 35.3643 59.1212 35.8628 59.4693 36.2806C59.8179 36.6984 60.2609 37.0319 60.7814 37.2701C61.3055 37.5076 61.9212 37.6285 62.6138 37.6285C63.3065 37.6285 63.9222 37.5076 64.4426 37.2701C64.963 37.0326 65.4065 36.6984 65.7547 36.2806C66.1025 35.8628 66.363 35.3643 66.5316 34.7963C66.698 34.2319 66.7827 33.6162 66.7827 32.9602C66.7827 32.3078 66.698 31.6884 66.5316 31.124M80.5683 35.8151C80.5122 35.6491 80.3502 35.7118 80.3502 35.7118C80.1021 35.8067 79.8371 35.8947 79.5549 35.9386C79.2705 35.9834 78.9539 36.0057 78.6204 36.0057C77.7958 36.0057 77.1361 35.7598 76.667 35.2727C76.1942 34.7853 75.9303 34.001 75.934 32.9382C75.9366 31.9706 76.1704 31.245 76.59 30.6879C77.0041 30.1382 77.6418 29.8523 78.4848 29.8523C79.1884 29.8523 79.7272 29.934 80.2916 30.1107C80.2916 30.1107 80.4254 30.169 80.4895 29.9927C80.6394 29.5785 80.7501 29.2817 80.9109 28.8272C80.9564 28.6971 80.845 28.6422 80.8043 28.6264C80.5829 28.5399 80.0603 28.3981 79.6645 28.3383C79.2943 28.2819 78.8656 28.2526 78.3818 28.2526C77.6635 28.2526 77.0258 28.3753 76.4797 28.6187C75.9336 28.8617 75.4718 29.1978 75.1053 29.6156C74.7389 30.0334 74.4603 30.5318 74.2734 31.0998C74.0883 31.6642 73.9949 32.2836 73.9949 32.9396C73.9949 34.3543 74.376 35.5014 75.131 36.3407C75.886 37.1836 77.0221 37.6087 78.5027 37.6087C79.3786 37.6087 80.2766 37.4317 80.9216 37.1763C80.9216 37.1763 81.0447 37.1169 80.9912 36.9733L80.5697 35.8151M83.5567 32.0036C83.6384 31.4539 83.789 30.9958 84.0258 30.6403C84.3802 30.0979 84.92 29.801 85.6786 29.801C86.4373 29.801 86.9394 30.0993 87.2985 30.6403C87.5368 30.9976 87.6408 31.4722 87.6797 32.0036L83.5383 32.0029L83.5567 32.0036ZM89.3106 30.7942C89.1651 30.2481 88.8048 29.6947 88.5703 29.4418C88.1964 29.0424 87.8336 28.7602 87.4708 28.6062C86.947 28.3835 86.3835 28.2692 85.8142 28.2702C85.0923 28.2702 84.4362 28.3922 83.9048 28.6403C83.3734 28.8903 82.9263 29.2304 82.5745 29.6555C82.223 30.0806 81.9588 30.5827 81.7902 31.1581C81.6216 31.7262 81.5366 32.3492 81.5366 33.0016C81.5366 33.6686 81.6249 34.288 81.7986 34.8487C81.9741 35.4131 82.2567 35.9079 82.6379 36.3183C83.019 36.7325 83.5064 37.055 84.0928 37.2822C84.6756 37.5076 85.3829 37.6245 86.1928 37.6219C87.864 37.6164 88.7436 37.2445 89.1028 37.0429C89.1669 37.007 89.2274 36.945 89.1519 36.7665L88.7744 35.7074C88.7165 35.5494 88.5567 35.6066 88.5567 35.6066C88.1426 35.7613 87.5562 36.0391 86.1818 36.0354C85.2839 36.0339 84.6206 35.769 84.2028 35.3537C83.7777 34.9286 83.5651 34.3092 83.5321 33.4296L89.3227 33.434C89.3227 33.434 89.4751 33.4326 89.4909 33.2838C89.4971 33.2222 89.6892 32.0963 89.3183 30.7953L89.3106 30.7942ZM37.2687 32.0036C37.3504 31.4539 37.5014 30.9958 37.7378 30.6403C38.0926 30.0979 38.632 29.801 39.3907 29.801C40.1493 29.801 40.6514 30.0993 41.0106 30.6403C41.2484 30.9976 41.3525 31.4722 41.3917 32.0036L37.2504 32.0029L37.2687 32.0036ZM43.0226 30.7942C42.8775 30.2481 42.5169 29.6947 42.2823 29.4418C41.9085 29.0424 41.5457 28.7602 41.1828 28.6062C40.659 28.3835 40.0955 28.2692 39.5263 28.2702C38.8043 28.2702 38.1483 28.3922 37.6169 28.6403C37.0855 28.8903 36.6383 29.2304 36.2865 29.6555C35.9358 30.0806 35.6708 30.5827 35.5022 31.1581C35.334 31.7262 35.2493 32.3492 35.2493 33.0016C35.2493 33.6686 35.3369 34.288 35.5117 34.8487C35.6869 35.4131 35.9699 35.9079 36.3473 36.3183C36.7285 36.7325 37.2159 37.055 37.8023 37.2822C38.385 37.5076 39.0887 37.6245 39.9023 37.6219C41.5735 37.6164 42.4531 37.2445 42.8123 37.0429C42.876 37.007 42.9369 36.945 42.861 36.7665L42.4835 35.7074C42.4252 35.5494 42.2654 35.6066 42.2654 35.6066C41.8513 35.7613 41.2649 36.0391 39.8906 36.0354C38.9963 36.0339 38.3293 35.769 37.9115 35.3537C37.4864 34.9286 37.2738 34.3092 37.2408 33.4296L43.0314 33.434C43.0314 33.434 43.1839 33.4326 43.1996 33.2838C43.2059 33.2222 43.3979 32.0963 43.0267 30.7953L43.0226 30.7942ZM24.7713 35.7785C24.5445 35.5974 24.5129 35.5531 24.4378 35.4355C24.3231 35.2584 24.2645 35.0067 24.2645 34.6841C24.2645 34.1784 24.433 33.8119 24.7812 33.5663C24.7775 33.5671 25.2796 33.1339 26.4597 33.1485C26.985 33.1579 27.5091 33.2026 28.0283 33.2823V35.9101H28.0291C28.0291 35.9101 27.2961 36.068 26.4678 36.1179C25.2914 36.1886 24.7709 35.7792 24.7746 35.7803L24.7713 35.7785ZM27.0729 31.7104C26.8383 31.6932 26.5341 31.6848 26.1713 31.6848C25.6765 31.6848 25.1964 31.7463 24.7493 31.8673C24.2985 31.989 23.8917 32.1773 23.5436 32.428C23.1944 32.6771 22.9073 33.0031 22.7043 33.3809C22.4994 33.762 22.395 34.2092 22.395 34.7149C22.395 35.228 22.484 35.6715 22.66 36.0343C22.8323 36.3942 23.0918 36.7053 23.4149 36.9395C23.7363 37.1734 24.1333 37.3463 24.5914 37.449C25.0458 37.5527 25.5589 37.6051 26.1233 37.6051C26.717 37.6051 27.3071 37.5552 27.8788 37.4589C28.3657 37.3749 28.8508 37.2805 29.3338 37.1759C29.5266 37.1316 29.7406 37.0733 29.7406 37.0733C29.8835 37.037 29.8725 36.8842 29.8725 36.8842L29.8692 31.6067C29.8692 30.4486 29.5599 29.5873 28.9493 29.0559C28.3409 28.5245 27.4504 28.257 26.2959 28.257C25.8635 28.257 25.1635 28.3156 24.7457 28.3995C24.7457 28.3995 23.4849 28.6443 22.9645 29.0519C22.9645 29.0519 22.8502 29.1223 22.9125 29.2817L23.3229 30.3812C23.3739 30.5237 23.5128 30.475 23.5128 30.475C23.5128 30.475 23.5564 30.4578 23.6077 30.4273C24.7182 29.8226 26.1255 29.8409 26.1255 29.8409C26.7485 29.8409 27.2323 29.9674 27.5548 30.2148C27.8704 30.457 28.0313 30.8231 28.0313 31.5928V31.8372C27.5365 31.7654 27.0784 31.724 27.0784 31.724L27.0729 31.7104ZM73.6174 28.7308C73.6257 28.7115 73.6301 28.6907 73.6302 28.6697C73.6303 28.6486 73.6262 28.6278 73.6181 28.6083C73.61 28.5889 73.5981 28.5713 73.583 28.5566C73.568 28.5419 73.5501 28.5303 73.5305 28.5227C73.4319 28.4853 72.9405 28.3816 72.563 28.3581C71.8373 28.3127 71.4342 28.4351 71.0714 28.5978C70.7129 28.7594 70.3164 29.0193 70.0965 29.3198L70.0958 28.6161C70.0958 28.5194 70.0272 28.4413 69.9297 28.4413H68.4491C68.3531 28.4413 68.2835 28.5194 68.2835 28.6161V37.2287C68.2836 37.2752 68.3021 37.3198 68.335 37.3527C68.3679 37.3856 68.4125 37.4041 68.459 37.4042H69.9763C70.0228 37.4041 70.0673 37.3856 70.1002 37.3527C70.133 37.3198 70.1515 37.2752 70.1515 37.2287V32.9041C70.1515 32.325 70.2152 31.7496 70.3424 31.3868C70.4678 31.028 70.6382 30.7418 70.8482 30.5365C71.0485 30.3383 71.2936 30.1912 71.5628 30.1078C71.8155 30.0353 72.077 29.9985 72.3398 29.9985C72.6422 29.9985 72.9738 30.0762 72.9738 30.0762C73.0852 30.0887 73.1472 30.0205 73.1849 29.9201C73.2843 29.6559 73.5661 28.8646 73.6211 28.707" fill="#FFFFFE"/>
<path id="Vector_4" fill-rule="evenodd" clip-rule="evenodd" d="M59.4458 24.7553C59.2583 24.6986 59.0675 24.6533 58.8744 24.6197C58.6148 24.5764 58.3519 24.556 58.0887 24.5589C57.0431 24.5589 56.2188 24.8543 55.6402 25.4377C55.0655 26.0168 54.6744 26.8989 54.4784 28.0596L54.4076 28.4514H53.0952C53.0952 28.4514 52.9351 28.4448 52.9014 28.6196L52.6859 29.8217C52.6708 29.9368 52.7203 30.0086 52.8742 30.0079H54.1518L52.8555 37.2435C52.754 37.8262 52.6379 38.3056 52.5092 38.6688C52.3824 39.0272 52.2585 39.2959 52.1061 39.4908C51.9584 39.6796 51.8184 39.8185 51.5769 39.8995C51.3775 39.9666 51.1481 39.9973 50.8966 39.9973C50.7566 39.9973 50.5705 39.9739 50.433 39.9464C50.2956 39.9193 50.2241 39.8885 50.1211 39.8452C50.1211 39.8452 49.9713 39.7881 49.9123 39.9383C49.8642 40.0611 49.5238 40.9975 49.4835 41.1133C49.4424 41.2277 49.4999 41.3178 49.5725 41.3438C49.7426 41.4047 49.869 41.4435 50.1006 41.4981C50.4224 41.574 50.6936 41.5788 50.9476 41.5788C51.4797 41.5788 51.9646 41.504 52.3666 41.3589C52.7713 41.2126 53.1235 40.9579 53.435 40.613C53.7718 40.2411 53.9836 39.8515 54.1863 39.3201C54.3868 38.7934 54.5575 38.1396 54.6942 37.3777L55.9967 30.0079H57.901C57.901 30.0079 58.0616 30.0137 58.0949 29.8396L58.3104 28.6375C58.3254 28.5225 58.2763 28.4506 58.1217 28.4514H56.2735C56.2826 28.4096 56.3665 27.7594 56.5787 27.1474C56.6693 26.8861 56.8397 26.6753 56.9841 26.5306C57.1189 26.3927 57.285 26.2894 57.4682 26.2293C57.6691 26.1672 57.8785 26.137 58.0887 26.1399C58.2628 26.1399 58.4336 26.1608 58.5637 26.1879C58.7429 26.226 58.8125 26.2462 58.8594 26.2601C59.0478 26.3177 59.0731 26.2619 59.1101 26.1707L59.5521 24.9569C59.5975 24.8264 59.4869 24.7714 59.4458 24.7553ZM33.6176 37.2589C33.6176 37.3557 33.5487 37.4345 33.452 37.4345H31.919C31.8218 37.4345 31.7529 37.3557 31.7529 37.2589V24.9199C31.7529 24.8235 31.8218 24.7454 31.919 24.7454H33.452C33.5487 24.7454 33.6176 24.8235 33.6176 24.9199V37.2589Z" fill="#FFFFFE"/>
</g>
</g>
</svg>
