<svg width="37" height="42" viewBox="0 0 37 42" fill="none" xmlns="http://www.w3.org/2000/svg">
<g id="shopify 1" clip-path="url(#clip0_359_1882)">
<path id="Vector" d="M32.1885 8.24681C32.1596 8.03681 31.9756 7.92059 31.8236 7.90779C31.6719 7.89514 28.4603 7.65709 28.4603 7.65709C28.4603 7.65709 26.2298 5.44274 25.985 5.19764C25.7401 4.95269 25.2617 5.0272 25.076 5.08185C25.0487 5.08991 24.5887 5.23188 23.8278 5.46733C23.0827 3.32332 21.7678 1.35306 19.4545 1.35306C19.3906 1.35306 19.3249 1.35565 19.2591 1.35939C18.6012 0.489328 17.7863 0.111328 17.0823 0.111328C11.6935 0.111328 9.11901 6.84787 8.3118 10.2712C6.21784 10.92 4.7303 11.3813 4.54029 11.441C3.37148 11.8076 3.33451 11.8444 3.18104 12.9458C3.06554 13.7796 0.00730896 37.4303 0.00730896 37.4303L23.8377 41.8953L36.7498 39.102C36.7498 39.102 32.217 8.45681 32.1885 8.24681ZM22.5107 5.87468L20.4942 6.49878C20.495 6.35667 20.4957 6.21686 20.4957 6.06396C20.4957 4.73147 20.3107 3.6586 20.014 2.8081C21.2059 2.95769 21.9998 4.31392 22.5107 5.87468ZM18.5354 3.07233C18.8667 3.90269 19.0822 5.09437 19.0822 6.70245C19.0822 6.78473 19.0815 6.85995 19.0808 6.93604C17.7694 7.34223 16.3444 7.78323 14.9163 8.22567C15.7182 5.1309 17.2213 3.63616 18.5354 3.07233ZM16.9343 1.55673C17.1669 1.55673 17.4012 1.6357 17.6254 1.79003C15.8984 2.6027 14.0472 4.64949 13.2655 8.73686L9.97368 9.75637C10.8893 6.63873 13.0637 1.55673 16.9343 1.55673Z" fill="#95BF46"/>
<path id="Vector_2" d="M31.8236 7.90924C31.6719 7.89658 28.4603 7.65854 28.4603 7.65854C28.4603 7.65854 26.2298 5.44419 25.985 5.19909C25.8934 5.1079 25.7698 5.06115 25.6407 5.04102L23.8389 41.8964L36.7498 39.1034C36.7498 39.1034 32.217 8.45826 32.1885 8.24826C32.1596 8.03826 31.9756 7.92204 31.8236 7.90924Z" fill="#5E8E3E"/>
<path id="Vector_3" d="M19.4545 15.0439L17.8623 19.7798C17.8623 19.7798 16.4674 19.0353 14.7575 19.0353C12.2507 19.0353 12.1246 20.6084 12.1246 21.0049C12.1246 23.1679 17.763 23.9966 17.763 29.0631C17.763 33.0492 15.2348 35.616 11.8258 35.616C7.73516 35.616 5.64322 33.0701 5.64322 33.0701L6.73853 29.4512C6.73853 29.4512 8.88887 31.2973 10.7034 31.2973C11.889 31.2973 12.3713 30.3638 12.3713 29.6817C12.3713 26.8603 7.74552 26.7344 7.74552 22.0982C7.74552 18.196 10.5463 14.4199 16.1999 14.4199C18.3783 14.4199 19.4545 15.0439 19.4545 15.0439Z" fill="white"/>
</g>
<defs>
<clipPath id="clip0_359_1882">
<rect width="36.8256" height="42" fill="white"/>
</clipPath>
</defs>
</svg>
