<svg width="65" height="65" viewBox="0 0 65 65" fill="none" xmlns="http://www.w3.org/2000/svg">
<g id="Traced Image">
<g id="Vector">
<path d="M24.6645 29.7419C22.5545 31.852 22.3438 32.1022 22.3438 32.4993C22.3438 32.8964 22.5545 33.1466 24.6645 35.2567C26.7266 37.3188 27.0315 37.5774 27.3997 37.5774C27.9529 37.5774 28.4376 37.0955 28.4376 36.5457C28.4376 36.1901 28.2036 35.9011 26.6342 34.3182L24.8307 32.4993L26.6342 30.6804C28.2036 29.0975 28.4376 28.8085 28.4376 28.4529C28.4376 27.9031 27.9529 27.4212 27.3997 27.4212C27.0315 27.4212 26.7266 27.6798 24.6645 29.7419Z" fill="#0957DE"/>
<path d="M36.8743 27.7328C36.6725 27.9346 36.5626 28.1885 36.5626 28.4529C36.5626 28.8085 36.7966 29.0975 38.366 30.6804L40.1695 32.4993L38.366 34.3182C36.7966 35.9011 36.5626 36.1901 36.5626 36.5457C36.5626 37.0955 37.0473 37.5774 37.6004 37.5774C37.9687 37.5774 38.2735 37.3188 40.3356 35.2567C42.4457 33.1466 42.6563 32.8964 42.6563 32.4993C42.6563 32.1022 42.4457 31.852 40.3356 29.7419C38.2735 27.6798 37.9687 27.4212 37.6004 27.4212C37.3295 27.4212 37.0778 27.5292 36.8743 27.7328Z" fill="#0957DE"/>
<path d="M32.8347 27.7097C32.6067 27.9377 32.3282 28.8701 31.5074 32.1517C30.9363 34.4361 30.4688 36.4511 30.4688 36.6296C30.4688 37.0828 30.9989 37.5774 31.4845 37.5774C32.2693 37.5774 32.3677 37.3457 33.4927 32.8469C34.0639 30.5625 34.5313 28.5475 34.5313 28.369C34.5313 27.5663 33.4128 27.1317 32.8347 27.7097Z" fill="#0957DE"/>
<path fill-rule="evenodd" clip-rule="evenodd" d="M49.8081 26.4055H48.7559L48.7501 28.4368H49.1735H49.5967L49.8792 29.7015C50.0345 30.3971 50.2582 31.077 50.3762 31.2124C50.4943 31.3477 50.9908 31.5863 51.4796 31.7423C51.9683 31.8983 52.7433 32.2181 53.2017 32.4531C53.6601 32.688 54.1227 32.8802 54.2296 32.8802C54.3367 32.8802 54.9247 32.5659 55.5364 32.1819C56.1482 31.7979 56.6831 31.4837 56.7253 31.4837C56.8324 31.4837 57.8907 32.5328 57.8907 32.6389C57.8907 32.6867 57.5765 33.2262 57.1925 33.838C56.8084 34.4497 56.4942 35.0377 56.4942 35.1447C56.4942 35.2516 56.6872 35.7143 56.9231 36.1727C57.159 36.6311 57.4875 37.4298 57.6531 37.9477C58.0172 39.0863 58.1854 39.2114 59.7856 39.5363L60.9376 39.7702V40.6243V41.4784L59.7856 41.7123C58.1854 42.0372 58.0172 42.1623 57.6531 43.3008C57.4875 43.8188 57.159 44.6175 56.9231 45.0759C56.6872 45.5343 56.4942 45.997 56.4942 46.1038C56.4942 46.2109 56.8084 46.7989 57.1925 47.4106C57.5765 48.0224 57.8907 48.5619 57.8907 48.6096C57.8907 48.7158 56.8324 49.7649 56.7253 49.7649C56.6831 49.7649 56.1482 49.4507 55.5364 49.0667C54.9247 48.6826 54.3367 48.3684 54.2296 48.3684C54.1227 48.3684 53.6601 48.5614 53.2017 48.7973C52.7433 49.0332 51.9464 49.3612 51.4308 49.526C50.8199 49.7214 50.4279 49.9258 50.3054 50.1128C50.2021 50.2706 49.9506 51.1826 49.7465 52.1397C49.4378 53.5886 49.4006 53.9399 49.5246 54.2393C49.7896 54.879 50.6284 55.0592 51.1367 54.5856C51.4326 54.31 51.4329 54.3093 51.7749 52.6989L52.001 51.6339L53.0966 51.1618L54.1921 50.6898L55.3697 51.4333L55.4291 51.4709C56.1491 51.9257 56.5427 52.1744 56.9187 52.1501C57.3724 52.1207 57.8003 51.6938 58.7444 50.752L58.8092 50.6874L58.8474 50.6493C59.8188 49.6804 60.2588 49.2417 60.2875 48.7774C60.3112 48.3932 60.0532 47.9915 59.5815 47.2573L59.5594 47.2228L58.8159 46.0654L59.2877 44.9707L59.7595 43.8759L61.0711 43.5823L61.2015 43.5532C62.0019 43.3746 62.44 43.2769 62.6798 43.0045C62.9697 42.6752 62.9694 42.0904 62.9689 40.7985L62.9688 40.6243L62.9689 40.45C62.9694 39.1582 62.9697 38.5734 62.6798 38.2441C62.44 37.9717 62.0019 37.874 61.2015 37.6954L61.0711 37.6663L59.7595 37.3726L59.2875 36.2775L58.8156 35.1823L59.5591 34.0047L59.5953 33.9475C60.0527 33.2233 60.3027 32.8276 60.2776 32.4502C60.2474 31.9954 59.818 31.5672 58.8712 30.6231L58.8092 30.5612L58.7445 30.4966C57.8003 29.5548 57.3724 29.1279 56.9187 29.0985C56.5427 29.0742 56.1491 29.3229 55.4291 29.7777L55.3697 29.8153L54.1921 30.5588L53.0966 30.0868L52.001 29.6147L51.7749 28.5497C51.4329 26.9393 51.4326 26.9386 51.1367 26.663C50.9052 26.4473 50.6897 26.4055 49.8081 26.4055ZM49.1678 34.5305H48.7501L48.7554 36.5403L49.2923 36.6272C50.6056 36.8396 51.7984 37.7343 52.3962 38.9559C52.6893 39.5548 52.7454 39.8307 52.7388 40.6403C52.7285 41.8909 52.3496 42.6985 51.2941 43.7194C50.4303 44.5549 50.3254 44.9457 50.8131 45.5125C51.4339 46.2342 52.4768 45.7922 53.5933 44.334C54.3926 43.2903 54.7399 42.3413 54.8131 41.0003C54.9752 38.0332 53.1343 35.4549 50.3326 34.7252C49.9216 34.6181 49.3974 34.5305 49.1678 34.5305ZM16.2443 38.593L16.2501 36.5618H15.8191H15.3881L15.1537 35.4026C14.8299 33.8006 14.7114 33.6412 13.5735 33.2773C13.0556 33.1117 12.2569 32.7832 11.7985 32.5473C11.3401 32.3114 10.8774 32.1184 10.7705 32.1184C10.6635 32.1184 10.0755 32.4326 9.46381 32.8167C8.85202 33.2007 8.31704 33.5149 8.2749 33.5149C8.16775 33.5149 7.10947 32.4658 7.10947 32.3596C7.10947 32.3119 7.42368 31.7724 7.80771 31.1606C8.19174 30.5489 8.50595 29.9609 8.50595 29.8538C8.50595 29.747 8.31298 29.2843 8.0771 28.8259C7.84122 28.3675 7.51267 27.5688 7.34712 27.0508C6.98302 25.9123 6.81481 25.7872 5.21456 25.4623L4.06259 25.2284V24.3743V23.5202L5.21456 23.2863C6.81481 22.9614 6.98302 22.8363 7.34712 21.6977C7.51267 21.1798 7.84122 20.3811 8.0771 19.9227C8.31298 19.4643 8.50595 19.0016 8.50595 18.8947C8.50595 18.7877 8.19174 18.1997 7.80771 17.588C7.42368 16.9762 7.10947 16.4367 7.10947 16.3889C7.10947 16.2828 8.16775 15.2337 8.2749 15.2337C8.31704 15.2337 8.85202 15.5479 9.46381 15.9319C10.0755 16.3159 10.6635 16.6302 10.7705 16.6302C10.8774 16.6302 11.3401 16.4372 11.7985 16.2013C12.2569 15.9654 13.0538 15.6374 13.5693 15.4726C14.1802 15.2772 14.5723 15.0728 14.6948 14.8858C14.7981 14.728 15.0496 13.816 15.2536 12.8589C15.5624 11.41 15.5996 11.0587 15.4755 10.7593C15.2106 10.1196 14.3718 9.93935 13.8635 10.413C13.5676 10.6886 13.5673 10.6893 13.2253 12.2997L12.9992 13.3647L11.9036 13.8368L10.8081 14.3088L9.6305 13.5653L9.57325 13.5291C8.8491 13.0717 8.45339 12.8217 8.07595 12.8468C7.62121 12.877 7.19298 13.3064 6.24883 14.2532L6.18703 14.3152L6.12252 14.3798C5.18141 15.3232 4.75455 15.7512 4.72423 16.2055C4.69907 16.5827 4.94713 16.978 5.40109 17.7016L5.43864 17.7614L6.17992 18.9434L5.71032 20.033L5.24072 21.1226L3.92904 21.4163L3.79864 21.4454C2.99825 21.624 2.56014 21.7217 2.32042 21.9941C2.03052 22.3234 2.03076 22.9082 2.03129 24.2L2.03134 24.3743L2.03129 24.5486C2.03076 25.8404 2.03052 26.4252 2.32042 26.7545C2.56014 27.0269 2.99825 27.1246 3.79864 27.3032L3.92904 27.3323L5.24072 27.6259L5.71273 28.721L6.18461 29.8163L5.44105 30.9939L5.40489 31.0511C4.94745 31.7753 4.69749 32.171 4.72256 32.5484C4.75277 33.0032 5.18219 33.4314 6.12898 34.3755L6.19096 34.4374L6.25574 34.502C7.19989 35.4438 7.62779 35.8707 8.08143 35.9001C8.45743 35.9244 8.85112 35.6757 9.5711 35.2209L9.6305 35.1833L10.8081 34.4398L11.9036 34.9118L12.9992 35.3839L13.2253 36.4489C13.5673 38.0593 13.5676 38.06 13.8635 38.3356C14.0949 38.5513 14.3105 38.593 15.1921 38.593H16.2443ZM15.8324 30.468H16.2501L16.2448 28.4583L15.7079 28.3747C14.4018 28.1716 13.091 27.1585 12.5316 25.9201C12.3375 25.4902 12.2624 25.0635 12.2591 24.3735C12.2531 23.1384 12.6406 22.3098 13.7061 21.2792C14.5748 20.4389 14.675 20.0533 14.1754 19.4725C13.5608 18.758 12.5254 19.2038 11.4068 20.6646C10.6075 21.7083 10.2603 22.6573 10.1871 23.9983C10.0852 25.8619 10.6638 27.4087 11.9398 28.6846C12.9741 29.719 14.6091 30.468 15.8324 30.468ZM45.7294 60.0559C45.7313 60.054 45.7333 60.052 45.7353 60.05C45.7509 60.0341 45.767 60.0179 45.7834 60.0014C45.7649 60.02 45.7469 60.0381 45.7294 60.0559ZM28.7493 6.40472C28.5527 6.60111 28.4376 6.86137 28.4376 7.10867C28.4376 7.35598 28.5527 7.61623 28.7493 7.81263L29.0608 8.1243H32.5001H35.9394L36.2509 7.81263C36.4474 7.61623 36.5626 7.35598 36.5626 7.10867C36.5626 6.86137 36.4474 6.60111 36.2509 6.40472L35.9394 6.09305H32.5001H29.0608L28.7493 6.40472ZM53.1243 10.4672C52.6775 10.9138 52.6887 11.69 53.1471 12.0506C53.6057 12.4114 54.1029 12.3852 54.5092 11.9791C55.1786 11.3096 54.7477 10.1555 53.8282 10.1555C53.5809 10.1555 53.3207 10.2707 53.1243 10.4672ZM53.1243 14.5297C52.6775 14.9763 52.6887 15.7525 53.1471 16.1131C53.6057 16.4739 54.1029 16.4477 54.5092 16.0416C55.1786 15.3721 54.7477 14.218 53.8282 14.218C53.5809 14.218 53.3207 14.3332 53.1243 14.5297ZM53.1243 18.5922C52.6775 19.0388 52.6887 19.815 53.1471 20.1756C53.6057 20.5364 54.1029 20.5102 54.5092 20.1041C55.1786 19.4346 54.7477 18.2805 53.8282 18.2805C53.5809 18.2805 53.3207 18.3957 53.1243 18.5922ZM10.7276 44.5795C10.3138 44.8059 10.1563 45.087 10.1563 45.5997C10.1563 46.2271 10.508 46.5911 11.1142 46.5911C12.2099 46.5911 12.6268 45.1131 11.6706 44.6186C11.247 44.3995 11.07 44.3921 10.7276 44.5795ZM10.7276 48.642C10.3138 48.8684 10.1563 49.1495 10.1563 49.6622C10.1563 50.2896 10.508 50.6536 11.1142 50.6536C12.2099 50.6536 12.6268 49.1756 11.6706 48.6811C11.247 48.462 11.07 48.4546 10.7276 48.642ZM10.7276 52.7045C10.3138 52.9309 10.1563 53.212 10.1563 53.7247C10.1563 54.3521 10.508 54.7161 11.1142 54.7161C12.2099 54.7161 12.6268 53.2381 11.6706 52.7436C11.247 52.5245 11.07 52.5171 10.7276 52.7045Z" fill="#171717"/>
<path fill-rule="evenodd" clip-rule="evenodd" d="M19.7063 2.2795C19.3377 2.4128 18.8462 2.63941 18.6136 2.78313C17.9424 3.19788 17.0237 4.26035 16.6538 5.04975L16.3136 5.77566L16.2792 17.1169L16.2448 28.4583L16.2501 30.468V33.5149V36.5618L16.2443 38.593L16.2789 48.908L16.3136 59.2229L16.6558 59.9533C17.1346 60.9749 18.1421 61.9977 19.1606 62.4962L19.9952 62.9046H32.5001H45.005L45.7353 62.5623C46.7535 62.0852 47.775 61.08 48.276 60.0622L48.6866 59.2285L48.721 47.8844L48.7554 36.5403L48.7501 34.5305V31.4837V28.4368L48.7559 26.4055L48.7213 16.0878L48.6866 5.77008L48.276 4.93638C47.775 3.91859 46.7535 2.91338 45.7353 2.43629L45.005 2.09402L32.6905 2.06559C20.8515 2.03829 20.3502 2.04654 19.7063 2.2795ZM18.5815 5.83914C19.045 4.969 19.756 4.39327 20.63 4.1805C20.8394 4.12946 26.1564 4.08198 32.4452 4.07475L33.8845 4.07301C43.5519 4.0609 44.7077 4.05945 45.3998 4.62526C45.4938 4.70209 45.5793 4.78938 45.6763 4.88853C45.7103 4.92327 45.7457 4.95947 45.7834 4.99719C45.8551 5.06887 45.9213 5.12416 45.9825 5.17524C46.0285 5.21365 46.0716 5.24968 46.1121 5.28849C46.7239 5.87542 46.7236 7.1003 46.7196 26.8471C46.7192 28.5839 46.7188 30.4639 46.7188 32.4993C46.7188 34.5347 46.7192 36.4147 46.7196 38.1515C46.7236 57.8983 46.7239 59.1232 46.1121 59.7101C46.0716 59.7489 46.0285 59.7849 45.9825 59.8233C45.9213 59.8744 45.8551 59.9297 45.7834 60.0014L45.7353 60.05L45.7294 60.0559L45.6781 60.1082C45.5807 60.2076 45.495 60.2951 45.4006 60.3722C44.7078 60.9382 43.5525 60.9381 33.9104 60.9369L32.5001 60.9368L31.0801 60.9369C21.4488 60.9381 20.2925 60.9382 19.5991 60.3718C19.5045 60.2945 19.4185 60.2066 19.3208 60.1068C19.2871 60.0724 19.2519 60.0365 19.2146 59.9991C19.1426 59.9271 19.076 59.8717 19.0146 59.8206C18.9688 59.7825 18.9259 59.7468 18.8856 59.7082C18.2719 59.1215 18.2737 57.891 18.3034 37.9119L18.3035 37.9104L18.3035 37.9069C18.3061 36.1463 18.3089 34.2401 18.3116 32.1759C18.3437 7.19081 18.3531 6.26786 18.5815 5.83914Z" fill="#0957DE"/>
</g>
</g>
</svg>
