<svg width="65" height="65" viewBox="0 0 65 65" fill="none" xmlns="http://www.w3.org/2000/svg">
<g id="Traced Image" clip-path="url(#clip0_56_1112)">
<g id="Vector">
<path d="M29.6449 15.4351C28.2662 15.6766 26.3313 16.295 25.0505 16.9035C21.6444 18.5217 18.5142 21.6506 16.8988 25.0517C15.1658 28.7007 14.757 32.9927 15.7722 36.8799C16.3088 38.9346 17.5793 41.5542 18.6416 42.7968C19.164 43.408 19.7602 43.4754 20.2561 42.9794C20.721 42.5146 20.6479 42.1185 19.8836 40.9621C18.1393 38.3223 17.3556 35.7278 17.3467 32.5635C17.3415 30.6899 17.5154 29.5112 18.0397 27.8662C20.1876 21.1281 26.9507 16.654 33.8901 17.3805C40.8783 18.1123 46.1416 22.9863 47.4949 29.9791C47.7263 31.1746 47.6952 34 47.436 35.3279C47.0282 37.4169 46.0734 39.6635 44.888 41.3229C44.3505 42.0755 44.3105 42.5434 44.7466 42.9794C45.2425 43.4754 45.8387 43.408 46.3611 42.7968C47.0013 42.0479 47.9651 40.3578 48.493 39.0583C49.4964 36.5877 49.8398 34.5475 49.7255 31.7383C49.5432 27.2659 47.8849 23.4987 44.6938 20.3076C42.0648 17.6786 38.9337 16.0548 35.3037 15.4378C33.8378 15.1887 31.0595 15.1873 29.6449 15.4351Z" fill="#171717"/>
<path fill-rule="evenodd" clip-rule="evenodd" d="M0.0648145 34.599V32.5V30.4011C0.0608873 30.8772 0.0585938 31.5899 0.0585938 32.5C0.0585938 33.4102 0.0608873 34.1229 0.0648145 34.599ZM30.9478 23.3548C26.6273 24.145 23.3969 27.7747 23.1434 32.1239C23.0447 33.8173 23.3216 35.115 24.1429 36.8092C24.6978 37.9538 24.9357 38.285 25.8835 39.2329C26.8272 40.1766 27.1685 40.4224 28.3132 40.9825C31.1681 42.3799 33.8025 42.3798 36.6881 40.9824C37.8454 40.422 38.1593 40.1959 39.1014 39.2438C40.301 38.0315 41.0119 36.8403 41.535 35.166C41.9591 33.8084 41.958 31.4626 41.5325 30.0879C40.5474 26.9052 38.2457 24.5886 35.1039 23.6176C34.1062 23.3094 31.9443 23.1727 30.9478 23.3548ZM30.5336 25.6281C28.0803 26.3342 26.0938 28.3561 25.459 30.7928C25.2103 31.7477 25.2103 33.5063 25.459 34.4612C26.1072 36.9497 28.1786 39.0211 30.6671 39.6693C31.6221 39.918 33.3806 39.918 34.3356 39.6693C36.8153 39.0234 38.8978 36.941 39.5437 34.4612C39.7924 33.5063 39.7924 31.7477 39.5437 30.7928C38.8964 28.3078 36.8158 26.2348 34.3239 25.5919C33.3024 25.3284 31.5153 25.3455 30.5336 25.6281ZM24.4398 42.9343C24.0209 42.9902 23.3123 43.1539 22.8653 43.2983C19.4876 44.3892 16.8643 46.9929 15.7098 50.4004L15.3011 51.6065L15.262 58.0351L15.2229 64.4636L15.5638 64.7319L15.9048 65H32.5013H49.0979L49.4389 64.7319L49.7798 64.4636L49.7407 58.0351L49.7016 51.6065L49.2929 50.4004C48.283 47.4198 46.2278 45.1216 43.3995 43.8102C41.7175 43.0303 39.8964 42.6804 39.2682 43.0166C38.9798 43.1709 38.9686 43.1976 36.8944 48.6866C36.2348 50.4322 35.6645 51.7747 35.6272 51.6699C35.5899 51.5652 35.4247 50.7579 35.2603 49.876L34.9613 48.2724L36.0799 46.195C37.1848 44.1434 37.3385 43.6743 37.0359 43.28C36.6782 42.8142 36.3952 42.7832 32.5013 42.7832C28.6074 42.7832 28.3245 42.8142 27.9668 43.28C27.6642 43.6743 27.8179 44.1434 28.9223 46.1942L30.0406 48.2709L29.7157 49.9617C29.5371 50.8915 29.3624 51.6797 29.3275 51.7132C29.2926 51.7466 28.6397 50.1082 27.8766 48.0721C27.1133 46.036 26.363 44.0781 26.2092 43.7212C25.8693 42.9333 25.5415 42.7874 24.4398 42.9343ZM31.4901 46.5217C31.7625 47.0049 31.9388 47.3178 32.0274 47.6538C32.1902 48.2712 32.0567 48.9667 31.678 50.94C31.6234 51.2245 31.5637 51.5355 31.499 51.8766L30.7744 55.7016L31.5981 57.8752C32.051 59.0707 32.4575 60.0489 32.5013 60.0489C32.5451 60.0489 32.9516 59.0707 33.4046 57.8752L34.2283 55.7016L33.5036 51.8766C33.439 51.5355 33.3793 51.2245 33.3247 50.9401C32.9459 48.9667 32.8125 48.2712 32.9752 47.6538C33.0638 47.3178 33.2402 47.0049 33.5126 46.5217C33.5847 46.3937 33.6636 46.2537 33.7494 46.0982L34.3876 44.9414H32.5013H30.6151L31.2533 46.0982C31.3391 46.2537 31.418 46.3937 31.4901 46.5217ZM23.4646 45.3111C21.0536 46.0872 18.978 47.9715 18.0218 50.2526C17.333 51.8958 17.267 52.576 17.267 58.0288V62.9688H24.2494C28.0897 62.9688 31.2318 62.9344 31.2318 62.8925C31.2318 62.8505 29.8928 59.2937 28.2563 54.9888C26.6197 50.6836 25.1129 46.7047 24.9078 46.1466C24.7026 45.5885 24.4563 45.1199 24.3603 45.1055C24.2644 45.0909 23.8613 45.1835 23.4646 45.3111ZM40.435 45.2271C40.2935 45.6249 36.8134 54.8216 35.3725 58.6056C34.4916 60.9191 33.7709 62.8473 33.7709 62.8903C33.7709 62.9335 36.913 62.9688 40.7533 62.9688H47.7357L47.7313 58.0493C47.7265 52.6095 47.6551 51.8625 46.989 50.2702C46.5185 49.1457 45.5642 47.8325 44.6495 47.0513C43.8573 46.3746 42.3436 45.5453 41.3967 45.2694C40.5657 45.0271 40.507 45.0246 40.435 45.2271Z" fill="#0957DE"/>
<path d="M27.6451 0.178139C27.0543 0.392689 26.3826 0.89682 26.0329 1.38787C25.4657 2.18438 25.392 2.66756 25.392 5.58774V8.35062L24.1785 8.76893C23.5113 8.99897 22.4115 9.45448 21.7347 9.78113L20.5043 10.3753L18.5199 8.42451C16.2845 6.22695 15.8001 5.92264 14.5375 5.92264C13.1712 5.92264 12.8388 6.15649 9.54936 9.43289C6.21163 12.7573 5.91926 13.1676 5.92231 14.5226C5.9251 15.8014 6.22433 16.279 8.42493 18.5186L10.3748 20.503L9.71033 21.8893C9.34484 22.6516 8.89085 23.7514 8.70156 24.3331L8.35739 25.3906H5.59845C2.54434 25.3906 2.0694 25.4749 1.23189 26.1653C0.973926 26.378 0.605762 26.8191 0.413809 27.1457L0.0648145 27.7393V30.4011C0.0715828 29.5804 0.0832036 29.4623 0.0962988 30.2466C0.117119 31.486 0.117119 33.5141 0.0962988 34.7534C0.0832036 35.5378 0.0715828 35.4197 0.0648145 34.599V37.2608L0.413809 37.8544C0.605762 38.1809 0.973926 38.6221 1.23189 38.8347C2.06928 39.5251 2.54459 39.6094 5.59629 39.6094H8.35308L8.69763 40.6568C8.88717 41.2329 9.34331 42.3403 9.71122 43.1179L10.3801 44.5316L8.48701 46.4187C6.29352 48.6053 5.91939 49.1932 5.92231 50.4503C5.92535 51.8239 6.16377 52.1677 9.30738 55.3294C10.8572 56.8882 12.282 58.2462 12.4733 58.3472C12.9141 58.5796 13.3865 58.4664 13.7143 58.0497C14.2356 57.3869 14.1599 57.2738 11.1916 54.279C9.66552 52.7393 8.32299 51.3382 8.20822 51.1656C8.09333 50.993 7.99939 50.655 7.99939 50.4145C7.99939 50.0174 8.2147 49.7602 10.348 47.6074C12.385 45.5519 12.6967 45.1851 12.6967 44.842C12.6967 44.6116 12.3524 43.7485 11.8712 42.7731C11.4172 41.8527 10.837 40.4357 10.5821 39.6245C10.3027 38.7357 9.99902 38.0232 9.81799 37.8321L9.51749 37.5147L6.25111 37.4813C4.13265 37.4597 2.88635 37.3975 2.7048 37.3043C2.08299 36.9849 2.03259 36.6246 2.03259 32.5C2.03259 28.3753 2.08324 28.0138 2.7048 27.6969C2.88482 27.6051 4.15093 27.5419 6.25111 27.5198L9.51749 27.4854L9.81799 27.168C9.99902 26.9768 10.3027 26.2642 10.5821 25.3755C10.837 24.5643 11.4172 23.1474 11.8712 22.227C12.3524 21.2516 12.6967 20.3884 12.6967 20.158C12.6967 19.815 12.385 19.4481 10.348 17.3926C8.2147 15.2399 7.99939 14.9827 7.99939 14.5855C7.99939 14.3451 8.09295 14.007 8.20721 13.8345C8.51202 13.374 13.0564 8.79623 13.6361 8.36573C13.962 8.12375 14.2838 7.99807 14.5776 7.99807C14.9866 7.99807 15.2221 8.19447 17.3939 10.3467C19.4494 12.3837 19.8163 12.6953 20.1593 12.6953C20.3898 12.6953 21.2529 12.351 22.2283 11.8699C23.1487 11.4159 24.5656 10.8357 25.3769 10.5808C26.2655 10.3014 26.9781 9.99771 27.1693 9.81667L27.4867 9.51618L27.5211 6.2498C27.5432 4.14961 27.6064 2.88351 27.6982 2.70349C28.0151 2.08193 28.3766 2.03127 32.5013 2.03127C36.626 2.03127 36.9876 2.08193 37.3045 2.70349C37.3963 2.88351 37.4595 4.14961 37.4816 6.2498L37.516 9.51618L37.8334 9.81667C38.0246 9.99771 38.7372 10.3014 39.6258 10.5808C40.4371 10.8357 41.854 11.4159 42.7744 11.8699C43.7498 12.351 44.6129 12.6953 44.8433 12.6953C45.1864 12.6953 45.5533 12.3837 47.6088 10.3467C49.7806 8.19447 50.0161 7.99807 50.4251 7.99807C50.7189 7.99807 51.0407 8.12375 51.3666 8.36573C51.9463 8.79623 56.4907 13.374 56.7955 13.8345C56.9097 14.007 57.0033 14.3451 57.0033 14.5855C57.0033 14.9827 56.788 15.2399 54.6547 17.3926C52.6177 19.4481 52.306 19.815 52.306 20.158C52.306 20.3884 52.6503 21.2516 53.1315 22.227C53.5855 23.1474 54.1656 24.5643 54.4206 25.3755C54.7 26.2642 55.0037 26.9768 55.1847 27.168L55.4852 27.4854L58.7516 27.5198C60.8518 27.5419 62.1179 27.6051 62.2979 27.6969C62.9194 28.0138 62.9701 28.3753 62.9701 32.5C62.9701 36.6246 62.9197 36.9849 62.2979 37.3043C62.1163 37.3975 60.87 37.4597 58.7516 37.4813L55.4852 37.5147L55.1847 37.8321C55.0037 38.0232 54.7 38.7357 54.4206 39.6245C54.1656 40.4357 53.5855 41.8527 53.1315 42.7731C52.6503 43.7485 52.306 44.6116 52.306 44.842C52.306 45.1851 52.6177 45.5519 54.6547 47.6074C56.788 49.7602 57.0033 50.0174 57.0033 50.4145C57.0033 50.655 56.9094 50.993 56.7945 51.1656C56.6797 51.3382 55.3372 52.7393 53.8111 54.279C50.8428 57.2738 50.7671 57.3869 51.2884 58.0497C51.6162 58.4664 52.0886 58.5796 52.5293 58.3472C52.7207 58.2462 54.1455 56.8882 55.6953 55.3294C58.834 52.1727 59.0787 51.8206 59.0787 50.4639C59.0787 49.2012 58.7744 48.7169 56.5769 46.4815L54.6261 44.4971L55.2413 43.2276C55.5796 42.5293 56.0335 41.4295 56.25 40.7837L56.6434 39.6094H59.4032C62.4987 39.6094 62.9608 39.5233 63.8213 38.7869C64.0962 38.5515 64.4547 38.0833 64.6178 37.7464C64.781 37.4094 64.9625 37.0347 65.0214 36.9134C65.1787 36.5889 65.1593 27.8956 65.0014 27.9932C64.9315 28.0364 64.8744 27.9653 64.8744 27.8351C64.8744 27.4819 64.1995 26.4854 63.7048 26.1081C62.8636 25.4664 62.4095 25.3906 59.41 25.3906H56.6434L56.25 24.2163C56.0335 23.5704 55.5796 22.4707 55.2413 21.7725L54.6261 20.503L56.5769 18.5186C58.7785 16.279 59.0776 15.8018 59.0804 14.5226C59.0834 13.1676 58.7911 12.7573 55.4533 9.43289C52.1588 6.15154 51.8348 5.92404 50.4516 5.92099C49.1945 5.91807 48.6066 6.2922 46.42 8.4857L44.5329 10.3788L43.1192 9.70978C42.3416 9.34187 41.2342 8.88243 40.6581 8.68882L39.6107 8.33691V5.58761C39.6107 2.54391 39.526 2.06758 38.8361 1.23058C38.6234 0.972611 38.1822 0.604447 37.8557 0.412494L37.2621 0.0634999L32.6918 0.0343006C29.0928 0.0113221 28.0203 0.0417909 27.6451 0.178139Z" fill="#171717"/>
</g>
</g>
<defs>
<clipPath id="clip0_56_1112">
<rect width="65" height="65" fill="white"/>
</clipPath>
</defs>
</svg>
