<svg width="44" height="18" viewBox="0 0 44 18" fill="none" xmlns="http://www.w3.org/2000/svg">
<g id="Wix.com_website_logo 1" clip-path="url(#clip0_359_2174)">
<path id="Vector" d="M25.1835 0.326002C24.3346 0.750439 23.9668 1.54272 23.9668 3.6932C23.9668 3.6932 24.3912 3.26877 25.0703 3.0141C25.5655 2.83018 25.9192 2.58967 26.1738 2.40574C26.9095 1.85398 27.0227 1.18902 27.0227 0.0288958C27.0086 0.0288958 25.8484 -0.0418438 25.1835 0.326002Z" fill="#FBBD71"/>
<path id="Vector_2" d="M19.9912 0.819559C19.2555 1.42792 19.0716 2.47486 19.0716 2.47486L16.6947 11.5861L14.7423 4.13017C14.5584 3.33789 14.1906 2.36168 13.6388 1.68258C12.9597 0.819559 11.5449 0.762968 11.3751 0.762968C11.2478 0.762968 9.84716 0.819559 9.11147 1.68258C8.5597 2.36168 8.19185 3.33789 8.00793 4.13017L6.1687 11.5861L3.79185 2.47486C3.79185 2.47486 3.60793 1.49866 2.87224 0.819559C1.71211 -0.227386 0.000213623 0.0272762 0.000213623 0.0272762L4.52754 17.0755C4.52754 17.0755 5.99893 17.2028 6.73462 16.835C7.71082 16.3398 8.206 15.9861 8.75777 13.6517C9.30954 11.572 10.7809 5.51666 10.8941 5.09223C10.9507 4.90831 11.078 4.35654 11.4459 4.35654C11.8137 4.35654 11.9411 4.85171 11.9976 5.09223C12.125 5.51666 13.5822 11.572 14.134 13.6517C14.7423 15.972 15.1668 16.3398 16.1571 16.835C16.8928 17.2028 18.3642 17.0755 18.3642 17.0755L22.8632 0.0272762C22.8632 0.0272762 21.1513 -0.213238 19.9912 0.819559Z" fill="#171717"/>
<path id="Vector_3" d="M27.0086 2.77344C27.0086 2.77344 26.6973 3.19787 26.089 3.56572C25.6645 3.80623 25.2967 3.93357 24.8722 4.17408C24.1365 4.54193 23.9526 4.90977 23.9526 5.46154V5.64546V6.56508V6.749V17.0204C23.9526 17.0204 25.1127 17.1477 25.8484 16.7799C26.8246 16.2847 27.0086 15.8037 27.0086 13.7239V3.45254V2.77344Z" fill="#171717"/>
<path id="Vector_4" d="M38.2562 8.58703L44.0002 0.0841402C44.0002 0.0841402 41.6234 -0.340297 40.3925 0.76324C39.6002 1.44234 38.8079 2.71565 38.8079 2.71565L36.7282 5.7716C36.6009 5.95552 36.4877 6.08285 36.3038 6.08285C36.1198 6.08285 35.9359 5.89893 35.8793 5.7716L33.7996 2.71565C33.7996 2.71565 32.9507 1.49893 32.215 0.76324C30.9983 -0.340297 28.6073 0.0841402 28.6073 0.0841402L34.1674 8.57289L28.48 17.0616C28.48 17.0616 30.9841 17.3729 32.215 16.2694C33.0073 15.5903 33.743 14.4301 33.743 14.4301L35.8227 11.3742C35.9501 11.1903 36.0632 11.0629 36.2472 11.0629C36.4311 11.0629 36.615 11.2468 36.6716 11.3742L38.7513 14.4301C38.7513 14.4301 39.5436 15.5903 40.2793 16.2694C41.496 17.3729 43.9436 17.0616 43.9436 17.0616L38.2562 8.58703Z" fill="#171717"/>
</g>
<defs>
<clipPath id="clip0_359_2174">
<rect width="44" height="17.119" fill="white"/>
</clipPath>
</defs>
</svg>
