<svg width="68" height="68" viewBox="0 0 68 68" fill="none" xmlns="http://www.w3.org/2000/svg">
<g id="woocommerce-svgrepo-com 1" clip-path="url(#clip0_344_913)">
<g id="Group">
<path id="Vector" fill-rule="evenodd" clip-rule="evenodd" d="M20.887 27.0938H2.13779C0.951249 27.0938 -0.00928065 28.0637 6.76623e-05 29.2408V36.3977C6.76623e-05 37.5842 0.960667 38.5448 2.14721 38.5448H11.0274L15.0861 40.8048L14.1633 38.5448H20.887C22.0735 38.5448 23.034 37.5842 23.034 36.3977V29.2408C23.034 28.0543 22.0735 27.0938 20.887 27.0938ZM1.74232 28.7511C1.47864 28.77 1.28088 28.8641 1.14904 29.0431C1.01721 29.2126 0.970127 29.4292 0.998374 29.674C1.55398 33.2054 2.07191 35.5879 2.55217 36.8215C2.74052 37.2735 2.9571 37.4901 3.21136 37.4713C3.60687 37.443 4.07772 36.8968 4.63332 35.8327C4.92525 35.23 5.37727 34.326 5.98937 33.1206C6.49786 34.9004 7.19471 36.2376 8.07052 37.1322C8.31538 37.3865 8.56963 37.4995 8.81443 37.4807C9.03107 37.4618 9.20053 37.3488 9.31354 37.1416C9.40772 36.9627 9.44539 36.7555 9.42655 36.5201C9.37005 35.6632 9.45484 34.4672 9.69025 32.9323C9.93505 31.3502 10.2364 30.2108 10.6037 29.5327C10.679 29.3915 10.7072 29.2502 10.6979 29.0807C10.679 28.8641 10.5848 28.6852 10.4059 28.544C10.227 28.4027 10.0292 28.3368 9.81265 28.3556C9.53957 28.3745 9.33238 28.5063 9.19114 28.77C8.6073 29.8341 8.19292 31.5574 7.94812 33.9493C7.59025 33.0453 7.28889 31.9812 7.05347 30.7287C6.94991 30.1731 6.69566 29.9094 6.28128 29.9377C5.99878 29.9565 5.76336 30.1448 5.57502 30.5027L3.51271 34.4296C3.17369 33.0641 2.85352 31.3973 2.56159 29.4292C2.49567 28.9395 2.22258 28.7135 1.74232 28.7511ZM19.8888 29.4292C20.5574 29.5704 21.0565 29.9283 21.3955 30.5216C21.6969 31.0301 21.8475 31.6422 21.8475 32.3767C21.8475 33.3466 21.6027 34.2318 21.113 35.0417C20.548 35.9834 19.8135 36.4542 18.9 36.4542C18.74 36.4542 18.5704 36.4354 18.3915 36.3977C17.7229 36.2565 17.2238 35.8987 16.8848 35.3054C16.5835 34.7874 16.4328 34.1659 16.4328 33.4408C16.4328 32.4709 16.6776 31.5857 17.1673 30.7852C17.7418 29.8435 18.4763 29.3727 19.3803 29.3727C19.5404 29.3727 19.7099 29.3915 19.8888 29.4292ZM19.4933 34.5237C19.8417 34.213 20.0772 33.7516 20.209 33.13C20.2467 32.9135 20.2749 32.678 20.2749 32.4332C20.2749 32.1601 20.2184 31.8682 20.1054 31.5762C19.9641 31.209 19.7758 31.0112 19.5498 30.9641C19.2108 30.8982 18.8812 31.0866 18.5704 31.548C18.3162 31.9058 18.1561 32.2825 18.0713 32.6686C18.0242 32.8852 18.0054 33.1207 18.0054 33.3561C18.0054 33.6292 18.0619 33.9211 18.1749 34.213C18.3162 34.5802 18.5045 34.778 18.7305 34.8251C18.9659 34.8722 19.2202 34.7686 19.4933 34.5237ZM15.4911 30.5216C15.152 29.9283 14.6435 29.5704 13.9844 29.4292C13.8054 29.3915 13.6359 29.3727 13.4758 29.3727C12.5718 29.3727 11.8373 29.8435 11.2629 30.7852C10.7731 31.5857 10.5283 32.4709 10.5283 33.4408C10.5283 34.1659 10.679 34.7874 10.9803 35.3054C11.3194 35.8987 11.8185 36.2565 12.487 36.3977C12.6659 36.4354 12.8355 36.4542 12.9956 36.4542C13.909 36.4542 14.6435 35.9834 15.2085 35.0417C15.6983 34.2318 15.9431 33.3466 15.9431 32.3767C15.9431 31.6422 15.7924 31.0301 15.4911 30.5216ZM14.3045 33.13C14.1727 33.7516 13.9372 34.213 13.5888 34.5237C13.3157 34.7686 13.0615 34.8722 12.8261 34.8251C12.6 34.778 12.4117 34.5802 12.2705 34.213C12.1574 33.9211 12.1009 33.6292 12.1009 33.3561C12.1009 33.1207 12.1198 32.8852 12.1669 32.6686C12.2516 32.2825 12.4117 31.9058 12.6659 31.548C12.9768 31.0866 13.3063 30.8982 13.6453 30.9641C13.8713 31.0112 14.0597 31.209 14.2009 31.5762C14.3139 31.8682 14.3705 32.1601 14.3705 32.4332C14.3705 32.678 14.3516 32.9135 14.3045 33.13Z" fill="#7F54B3"/>
<path id="Vector_2" fill-rule="evenodd" clip-rule="evenodd" d="M25.4163 30.4362C24.7854 31.0577 24.4746 31.8487 24.4746 32.8093C24.4746 33.8357 24.7854 34.6738 25.4069 35.3048C26.0284 35.9357 26.8383 36.2559 27.8459 36.2559C28.1378 36.2559 28.4674 36.2088 28.8253 36.1052V34.5796C28.4957 34.6738 28.2132 34.7209 27.9683 34.7209C27.4692 34.7209 27.0737 34.5514 26.7723 34.2218C26.471 33.8828 26.3204 33.4308 26.3204 32.8563C26.3204 32.3196 26.471 31.877 26.763 31.538C27.0643 31.1895 27.4315 31.02 27.8836 31.02C28.1755 31.02 28.4862 31.0671 28.8253 31.1613V29.6357C28.5145 29.551 28.1661 29.5133 27.7988 29.5133C26.8383 29.5039 26.0473 29.8147 25.4163 30.4362ZM31.9517 29.5039C31.0854 29.5039 30.4073 29.7958 29.9176 30.3703C29.428 30.9447 29.1925 31.7546 29.1925 32.7904C29.1925 33.9111 29.4373 34.768 29.9176 35.3613C30.3979 35.9546 31.1042 36.2559 32.0271 36.2559C32.9217 36.2559 33.6091 35.9546 34.0893 35.3613C34.5696 34.768 34.8145 33.9299 34.8145 32.8563C34.8145 31.7828 34.5696 30.9541 34.0799 30.3703C33.5808 29.7958 32.8745 29.5039 31.9517 29.5039ZM32.6956 34.4007C32.5261 34.6644 32.2719 34.7963 31.9517 34.7963C31.6504 34.7963 31.4243 34.6644 31.2643 34.4007C31.1042 34.137 31.0288 33.6097 31.0288 32.8093C31.0288 31.5756 31.3396 30.9635 31.9706 30.9635C32.6297 30.9635 32.9687 31.5851 32.9687 32.8375C32.9593 33.6097 32.8651 34.137 32.6956 34.4007ZM39.4664 29.6828L39.1274 31.1236C39.0427 31.4909 38.9579 31.8676 38.8826 32.2537L38.6943 33.2519C38.5153 32.2537 38.2705 31.0671 37.9597 29.6828H35.775L34.9557 36.0958H36.5943L37.0369 31.6792L38.1575 36.0958H39.3252L40.3987 31.6886L40.8601 36.0958H42.574L41.7077 29.6828H39.4664ZM47.3108 29.6828L46.9718 31.1236C46.887 31.4909 46.8023 31.8676 46.7269 32.2537L46.5386 33.2519C46.3597 32.2537 46.1148 31.0671 45.804 29.6828H43.6193L42.8001 36.0958H44.4386L44.8812 31.6792L46.0018 36.0958H47.1695L48.2336 31.6886L48.6951 36.0958H50.409L49.5426 29.6828H47.3108ZM52.6408 33.5626H54.1757V32.2348H52.6408V31.0577H54.4112V29.6922H50.9081V36.1052H54.4206V34.7398H52.6408V33.5626ZM59.2986 32.5456C59.4775 32.2537 59.5716 31.9523 59.5716 31.6416C59.5716 31.0389 59.3362 30.5586 58.8654 30.2102C58.3945 29.8618 57.7448 29.6828 56.9349 29.6828H54.9197V36.0958H56.6524V33.1765H56.6807L58.0838 36.0958H59.9107L58.5264 33.2048C58.856 33.0541 59.1196 32.8375 59.2986 32.5456ZM56.643 32.442V30.9165C57.0573 30.9259 57.3492 30.9918 57.5282 31.1236C57.7071 31.2555 57.7918 31.4626 57.7918 31.764C57.7918 32.2066 57.4058 32.4326 56.643 32.442ZM60.5885 30.4362C59.9577 31.0577 59.647 31.8487 59.647 32.8093C59.647 33.8357 59.9577 34.6738 60.5794 35.3048C61.2011 35.9357 62.0104 36.2559 63.0184 36.2559C63.3103 36.2559 63.64 36.2088 63.9975 36.1052V34.5796C63.6683 34.6738 63.3855 34.7209 63.1406 34.7209C62.6417 34.7209 62.2463 34.5514 61.9448 34.2218C61.6434 33.8828 61.4929 33.4308 61.4929 32.8563C61.4929 32.3196 61.6434 31.877 61.9352 31.538C62.2367 31.1895 62.6038 31.02 63.0557 31.02C63.3476 31.02 63.6587 31.0671 63.9975 31.1613V29.6357C63.687 29.551 63.3385 29.5133 62.9715 29.5133C62.0201 29.5039 61.2197 29.8147 60.5885 30.4362ZM66.2108 34.7209V33.5532H67.7453V32.2254H66.2108V31.0483H67.9902V29.6828H64.4873V36.0958H67.9998V34.7303H66.2108V34.7209Z" fill="#171717"/>
</g>
</g>
<defs>
<clipPath id="clip0_344_913">
<rect width="68" height="68" fill="white"/>
</clipPath>
</defs>
</svg>
